<?xml version="1.0" encoding="UTF-8" standalone="no"?>
<!-- Created with sK1/UniConvertor (http://sk1project.org/) -->

<svg
   xmlns:dc="http://purl.org/dc/elements/1.1/"
   xmlns:cc="http://creativecommons.org/ns#"
   xmlns:rdf="http://www.w3.org/1999/02/22-rdf-syntax-ns#"
   xmlns:svg="http://www.w3.org/2000/svg"
   xmlns="http://www.w3.org/2000/svg"
   xmlns:sodipodi="http://sodipodi.sourceforge.net/DTD/sodipodi-0.dtd"
   xmlns:inkscape="http://www.inkscape.org/namespaces/inkscape"
   width="262.84375"
   height="262.84375"
   viewBox="0 0 210.27501 210.27499"
   id="svg2985"
   version="1.1"
   inkscape:version="0.91 r13725"
   sodipodi:docname="4ONSE_logo_OK_diff.svg"
   style="fill-rule:evenodd"
   inkscape:export-filename="/home/maxi/Documents/2016/projects/4ONSE/logos/4ONSE_logo_OK_diff.png"
   inkscape:export-xdpi="90"
   inkscape:export-ydpi="90">
  <metadata
     id="metadata3003">
    <rdf:RDF>
      <cc:Work
         rdf:about="">
        <dc:format>image/svg+xml</dc:format>
        <dc:type
           rdf:resource="http://purl.org/dc/dcmitype/StillImage" />
        <dc:title />
      </cc:Work>
    </rdf:RDF>
  </metadata>
  <defs
     id="defs3001">
    <clipPath
       clipPathUnits="userSpaceOnUse"
       id="clipPath14507">
      <path
         style="font-size:medium;font-style:normal;font-variant:normal;font-weight:normal;font-stretch:normal;text-indent:0;text-align:start;text-decoration:none;line-height:normal;letter-spacing:normal;word-spacing:normal;text-transform:none;direction:ltr;block-progression:tb;writing-mode:lr-tb;text-anchor:start;baseline-shift:baseline;color:#000000;fill:#ffffff;fill-opacity:1;stroke:#070707;stroke-width:0.101;stroke-linejoin:miter;stroke-miterlimit:1;stroke-opacity:1;stroke-dasharray:none;stroke-dashoffset:0.05;marker:none;visibility:visible;display:inline;overflow:visible;enable-background:accumulate;font-family:Sans;-inkscape-font-specification:Sans"
         id="path14509"
         d="m 205.77714,-56.116756 0,2.860673 -3.23411,0 0,-2.620855 c -0.0182,0.0033 -0.0366,0.0069 -0.0547,0.01025 l 0,2.610576 -3.2341,0 0,-1.360106 c -0.0185,0.01239 -0.0366,0.02518 -0.0547,0.03771 l 0,1.322416 -1.4115,0 c -0.0144,0.01875 -0.0304,0.03599 -0.0446,0.0548 l 1.45603,0 0,3.234099 -2.76132,0 c -0.002,0.01823 -0.007,0.03665 -0.0107,0.05481 l 2.77159,0 0,3.234091 -2.91549,0 0,0.0548 2.91549,0 0,3.234098 -2.91549,0 0,0.0548 2.91549,0 0,3.234097 -2.91549,0 0,0.0548 2.91549,0 0,3.234099 -2.91549,0 0,0.0548 2.91549,0 0,3.234097 -2.91549,0 0,0.0548 2.91549,0 0,3.234099 -2.91549,0 0,0.0548 2.91549,0 0,3.234097 -2.91549,0 0,0.0548 2.91549,0 0,3.234098 -2.91549,0 0,0.0548 2.91549,0 0,3.234093 -2.91549,0 0,0.0548 2.91549,0 0,3.234097 -2.91549,0 0,0.0548 2.91549,0 0,3.2341 -2.91549,0 0,0.0548 2.91549,0 0,3.234097 -2.91549,0 0,0.05481 2.91549,0 0,3.2340988 -2.91549,0 0,0.0548 2.91549,0 0,3.2340987 -2.91549,0 0,0.0548 2.91549,0 0,3.23410096 -2.91549,0 0,0.05482 2.91549,0 0,3.23409154 -2.91549,0 0,0.05482 2.91549,0 0,3.234098 -2.91549,0 0,0.05482 2.91549,0 0,3.234097 -2.91549,0 0,0.05482 2.91549,0 0,3.234105 -2.74419,0 c 0.002,0.01834 0.007,0.03648 0.0107,0.05482 l 2.73392,0 0,3.234098 -1.38067,0 c 0.0144,0.01833 0.0299,0.03654 0.0446,0.05482 l 1.33612,0 0,1.229919 c 0.0181,0.01227 0.0366,0.02554 0.0548,0.03775 l 0,-1.267607 3.23409,0 0,2.504367 c 0.0181,0.0032 0.0366,0.0069 0.0548,0.01025 l 0,-2.514646 3.23409,0 0,2.751038 0.0547,0 0,-2.751038 3.23411,0 0,2.751038 0.0548,0 0,-2.751038 3.23409,0 0,2.751038 0.0548,0 0,-2.751038 3.2341,0 0,2.751038 0.0548,0 0,-2.751038 3.2341,0 0,2.751038 0.0547,0 0,-2.751038 3.23411,0 0,2.751038 0.0548,0 0,-2.751038 3.23409,0 0,2.751038 0.0548,0 0,-2.751038 3.2341,0 0,2.751038 0.0548,0 0,-2.751038 3.2341,0 0,2.751038 0.0547,0 0,-2.751038 3.23411,0 0,2.751038 0.0548,0 0,-2.751038 3.2341,0 0,2.751038 0.0548,0 0,-2.751038 3.23409,0 0,2.751038 0.0548,0 0,-2.751038 3.23409,0 0,2.751038 0.0548,0 0,-2.751038 3.2341,0 0,2.751038 0.0547,0 0,-2.751038 3.2341,0 0,2.751038 0.0548,0 0,-2.751038 3.23409,0 0,2.751038 0.0548,0 0,-2.751038 3.2341,0 0,2.751038 0.0548,0 0,-2.751038 3.2341,0 0,2.751038 0.0547,0 0,-2.751038 3.23411,0 0,2.751038 0.0548,0 0,-2.751038 3.23409,0 0,2.751038 0.0548,0 0,-2.751038 3.2341,0 0,2.751038 0.0548,0 0,-2.751038 3.23409,0 0,2.751038 0.0548,0 0,-2.751038 3.23411,0 0,2.751038 0.0547,0 0,-2.751038 3.23409,0 0,2.751038 0.0548,0 0,-2.751038 3.2341,0 0,2.751038 0.0548,0 0,-2.751038 3.2341,0 0,2.751038 0.0547,0 0,-2.751038 3.23411,0 0,2.751038 0.0548,0 0,-2.751038 3.23408,0 0,2.751038 0.0547,0 0,-2.751038 3.23411,0 0,2.751038 0.0547,0 0,-2.751038 3.2341,0 0,2.751038 0.0548,0 0,-2.751038 3.2341,0 0,2.751038 0.0548,0 0,-2.751038 3.23408,0 0,2.751038 0.0548,0 0,-2.751038 3.2341,0 0,2.751038 0.0547,0 0,-2.751038 3.2341,0 0,2.751038 0.0548,0 0,-2.751038 3.23409,0 0,2.751038 0.0547,0 0,-2.751038 3.23411,0 0,2.459834 c 0.0182,-0.0037 0.0367,-0.0067 0.0548,-0.01025 l 0,-2.449554 3.23409,0 0,1.068895 c 0.0186,-0.01378 0.0365,-0.02718 0.0548,-0.04109 l 0,-1.027789 1.06547,0 c 0.0149,-0.01828 0.0299,-0.03635 0.0446,-0.05482 l -1.11001,0 0,-3.234096 2.5078,0 c 0.002,-0.01834 0.007,-0.03654 0.0107,-0.05482 l -2.51809,0 0,-3.234106 2.69623,0 0,-0.05482 -2.69623,0 0,-3.234099 2.69623,0 0,-0.05482 -2.69623,0 0,-3.234098 2.69623,0 0,-0.05482 -2.69623,0 0,-3.23409254 2.69623,0 0,-0.05482 -2.69623,0 0,-3.23409996 2.69623,0 0,-0.0548 -2.69623,0 0,-3.2340977 2.69623,0 0,-0.05481 -2.69623,0 0,-3.2340978 2.69623,0 0,-0.0548 -2.69623,0 0,-3.2341 2.69623,0 0,-0.0548 -2.69623,0 0,-3.234098 2.69623,0 0,-0.05481 -2.69623,0 0,-3.234098 2.69623,0 0,-0.0548 -2.69623,0 0,-3.234093 2.69623,0 0,-0.0548 -2.69623,0 0,-3.234098 2.69623,0 0,-0.05481 -2.69623,0 0,-3.234097 2.69623,0 0,-0.0548 -2.69623,0 0,-3.234098 2.69623,0 0,-0.05481 -2.69623,0 0,-3.234098 2.69623,0 0,-0.0548 -2.69623,0 0,-3.234099 2.69623,0 0,-0.0548 -2.69623,0 0,-3.234099 2.69623,0 0,-0.0548 -2.69623,0 0,-3.234098 2.69623,0 0,-0.0548 -2.69623,0 0,-3.234092 2.55919,0 c -0.002,-0.01829 -0.004,-0.03646 -0.007,-0.0548 l -2.55233,0 0,-3.234098 1.27446,0 c -0.0136,-0.01829 -0.0272,-0.03658 -0.041,-0.0548 l -1.23335,0 0,-1.202507 c -0.0186,-0.01359 -0.036,-0.02764 -0.0548,-0.04108 l 0,1.243625 -3.23409,0 0,-2.572894 c -0.0182,-0.0041 -0.0365,-0.0067 -0.0548,-0.01025 l 0,2.583166 -3.23411,0 0,-2.860672 -0.0547,0 0,2.860672 -3.23411,0 0,-2.860672 -0.0548,0 0,2.860672 -3.23409,0 0,-2.860672 -0.0548,0 0,2.860672 -3.23409,0 0,-2.860672 -0.0548,0 0,2.860672 -3.2341,0 0,-2.860672 -0.0548,0 0,2.860672 -3.23409,0 0,-2.860672 -0.0548,0 0,2.860672 -3.2341,0 0,-2.860672 -0.0548,0 0,2.860672 -3.23409,0 0,-2.860672 -0.0548,0 0,2.860672 -3.2341,0 0,-2.860672 -0.0547,0 0,2.860672 -3.2341,0 0,-2.860672 -0.0548,0 0,2.860672 -3.23409,0 0,-2.860672 -0.0548,0 0,2.860672 -3.2341,0 0,-2.860672 -0.0548,0 0,2.860672 -3.23409,0 0,-2.860672 -0.0548,0 0,2.860672 -3.23411,0 0,-2.860672 -0.0548,0 0,2.860672 -3.23409,0 0,-2.860672 -0.0548,0 0,2.860672 -3.23409,0 0,-2.860672 -0.0548,0 0,2.860672 -3.2341,0 0,-2.860672 -0.0547,0 0,2.860672 -3.23409,0 0,-2.860672 -0.0548,0 0,2.860672 -3.2341,0 0,-2.860672 -0.0548,0 0,2.860672 -3.2341,0 0,-2.860672 -0.0547,0 0,2.860672 -3.23411,0 0,-2.860672 -0.0548,0 0,2.860672 -3.23409,0 0,-2.860672 -0.0548,0 0,2.860672 -3.2341,0 0,-2.860672 -0.0548,0 0,2.860672 -3.23409,0 0,-2.860672 -0.0548,0 0,2.860672 -3.23411,0 0,-2.860672 -0.0547,0 0,2.860672 -3.2341,0 0,-2.860672 -0.0548,0 0,2.860672 -3.2341,0 0,-2.860672 -0.0548,0 0,2.860672 -3.23409,0 0,-2.860672 -0.0548,0 0,2.860672 -3.23409,0 0,-2.860672 -0.0548,0 0,2.860672 -3.2341,0 0,-2.860672 -0.0548,0 0,2.860672 -3.23409,0 0,-2.860672 -0.0548,0 0,2.860672 -3.23411,0 0,-2.860672 -0.0547,0 0,2.860672 -3.2341,0 0,-2.860672 -0.0548,0 0,2.860672 -3.2341,0 0,-2.860672 -0.0548,0 0,2.860672 -3.23409,0 0,-2.860672 -0.0548,0 z m -6.52301,2.915488 3.23409,0 0,3.234098 -3.23409,0 0,-3.234098 z m 3.2889,0 3.23411,0 0,3.234098 -3.23411,0 0,-3.234098 z m 3.28893,0 3.23408,0 0,3.234098 -3.23408,0 0,-3.234098 z m 3.28889,0 3.23411,0 0,3.234098 -3.23411,0 0,-3.234098 z m 3.28893,0 3.2341,0 0,3.234098 -3.2341,0 0,-3.234098 z m 3.28891,0 3.23409,0 0,3.234098 -3.23409,0 0,-3.234098 z m 3.28891,0 3.23409,0 0,3.234098 -3.23409,0 0,-3.234098 z m 3.28892,0 3.2341,0 0,3.234098 -3.2341,0 0,-3.234098 z m 3.28891,0 3.23409,0 0,3.234098 -3.23409,0 0,-3.234098 z m 3.28891,0 3.23409,0 0,3.234098 -3.23409,0 0,-3.234098 z m 3.28892,0 3.23409,0 0,3.234098 -3.23409,0 0,-3.234098 z m 3.28891,0 3.23409,0 0,3.234098 -3.23409,0 0,-3.234098 z m 3.28891,0 3.23409,0 0,3.234098 -3.23409,0 0,-3.234098 z m 3.28891,0 3.2341,0 0,3.234098 -3.2341,0 0,-3.234098 z m 3.28891,0 3.2341,0 0,3.234098 -3.2341,0 0,-3.234098 z m 3.28891,0 3.23409,0 0,3.234098 -3.23409,0 0,-3.234098 z m 3.28892,0 3.23409,0 0,3.234098 -3.23409,0 0,-3.234098 z m 3.28891,0 3.23409,0 0,3.234098 -3.23409,0 0,-3.234098 z m 3.28891,0 3.23409,0 0,3.234098 -3.23409,0 0,-3.234098 z m 3.28892,0 3.2341,0 0,3.234098 -3.2341,0 0,-3.234098 z m 3.2889,0 3.2341,0 0,3.234098 -3.2341,0 0,-3.234098 z m 3.28892,0 3.23409,0 0,3.234098 -3.23409,0 0,-3.234098 z m 3.28892,0 3.2341,0 0,3.234098 -3.2341,0 0,-3.234098 z m 3.2889,0 3.23411,0 0,3.234098 -3.23411,0 0,-3.234098 z m 3.28891,0 3.23409,0 0,3.234098 -3.23409,0 0,-3.234098 z m 3.28892,0 3.2341,0 0,3.234098 -3.2341,0 0,-3.234098 z m 3.28891,0 3.23411,0 0,3.234098 -3.23411,0 0,-3.234098 z m 3.28891,0 3.2341,0 0,3.234098 -3.2341,0 0,-3.234098 z m 3.28892,0 3.2341,0 0,3.234098 -3.2341,0 0,-3.234098 z m 3.28891,0 3.23411,0 0,3.234098 -3.23411,0 0,-3.234098 z m 3.28891,0 3.2341,0 0,3.234098 -3.2341,0 0,-3.234098 z m 3.28893,0 3.23409,0 0,3.234098 -3.23409,0 0,-3.234098 z m 3.2889,0 3.2341,0 0,3.234098 -3.2341,0 0,-3.234098 z m 3.28891,0 3.2341,0 0,3.234098 -3.2341,0 0,-3.234098 z m 3.28893,0 3.23408,0 0,3.234098 -3.23408,0 0,-3.234098 z m 3.28889,0 3.23411,0 0,3.234098 -3.23411,0 0,-3.234098 z m 3.28891,0 3.2341,0 0,3.234098 -3.2341,0 0,-3.234098 z m 3.28893,0 3.23409,0 0,3.234098 -3.23409,0 0,-3.234098 z m -121.68977,3.288913 3.23409,0 0,3.2341 -3.23409,0 0,-3.2341 z m 3.2889,0 3.23411,0 0,3.2341 -3.23411,0 0,-3.2341 z m 3.28893,0 3.23408,0 0,3.2341 -3.23408,0 0,-3.2341 z m 3.28889,0 3.23411,0 0,3.2341 -3.23411,0 0,-3.2341 z m 3.28893,0 3.2341,0 0,3.2341 -3.2341,0 0,-3.2341 z m 3.28891,0 3.23409,0 0,3.2341 -3.23409,0 0,-3.2341 z m 3.28891,0 3.23409,0 0,3.2341 -3.23409,0 0,-3.2341 z m 3.28892,0 3.2341,0 0,3.2341 -3.2341,0 0,-3.2341 z m 3.28891,0 3.23409,0 0,3.2341 -3.23409,0 0,-3.2341 z m 3.28891,0 3.23409,0 0,3.2341 -3.23409,0 0,-3.2341 z m 3.28892,0 3.23409,0 0,3.2341 -3.23409,0 0,-3.2341 z m 3.28891,0 3.23409,0 0,3.2341 -3.23409,0 0,-3.2341 z m 3.28891,0 3.23409,0 0,3.2341 -3.23409,0 0,-3.2341 z m 3.28891,0 3.2341,0 0,3.2341 -3.2341,0 0,-3.2341 z m 3.28891,0 3.2341,0 0,3.2341 -3.2341,0 0,-3.2341 z m 3.28891,0 3.23409,0 0,3.2341 -3.23409,0 0,-3.2341 z m 3.28892,0 3.23409,0 0,3.2341 -3.23409,0 0,-3.2341 z m 3.28891,0 3.23409,0 0,3.2341 -3.23409,0 0,-3.2341 z m 3.28891,0 3.23409,0 0,3.2341 -3.23409,0 0,-3.2341 z m 3.28892,0 3.2341,0 0,3.2341 -3.2341,0 0,-3.2341 z m 3.2889,0 3.2341,0 0,3.2341 -3.2341,0 0,-3.2341 z m 3.28892,0 3.23409,0 0,3.2341 -3.23409,0 0,-3.2341 z m 3.28892,0 3.2341,0 0,3.2341 -3.2341,0 0,-3.2341 z m 3.2889,0 3.23411,0 0,3.2341 -3.23411,0 0,-3.2341 z m 3.28891,0 3.23409,0 0,3.2341 -3.23409,0 0,-3.2341 z m 3.28892,0 3.2341,0 0,3.2341 -3.2341,0 0,-3.2341 z m 3.28891,0 3.23411,0 0,3.2341 -3.23411,0 0,-3.2341 z m 3.28891,0 3.2341,0 0,3.2341 -3.2341,0 0,-3.2341 z m 3.28892,0 3.2341,0 0,3.2341 -3.2341,0 0,-3.2341 z m 3.28891,0 3.23411,0 0,3.2341 -3.23411,0 0,-3.2341 z m 3.28891,0 3.2341,0 0,3.2341 -3.2341,0 0,-3.2341 z m 3.28893,0 3.23409,0 0,3.2341 -3.23409,0 0,-3.2341 z m 3.2889,0 3.2341,0 0,3.2341 -3.2341,0 0,-3.2341 z m 3.28891,0 3.2341,0 0,3.2341 -3.2341,0 0,-3.2341 z m 3.28893,0 3.23408,0 0,3.2341 -3.23408,0 0,-3.2341 z m 3.28889,0 3.23411,0 0,3.2341 -3.23411,0 0,-3.2341 z m 3.28891,0 3.2341,0 0,3.2341 -3.2341,0 0,-3.2341 z m 3.28893,0 3.23409,0 0,3.2341 -3.23409,0 0,-3.2341 z m -121.68977,3.288913 3.23409,0 0,3.234092 -3.23409,0 0,-3.234092 z m 3.2889,0 3.23411,0 0,3.234092 -3.23411,0 0,-3.234092 z m 3.28893,0 3.23408,0 0,3.234092 -3.23408,0 0,-3.234092 z m 3.28889,0 3.23411,0 0,3.234092 -3.23411,0 0,-3.234092 z m 3.28893,0 3.2341,0 0,3.234092 -3.2341,0 0,-3.234092 z m 3.28891,0 3.23409,0 0,3.234092 -3.23409,0 0,-3.234092 z m 3.28891,0 3.23409,0 0,3.234092 -3.23409,0 0,-3.234092 z m 3.28892,0 3.2341,0 0,3.234092 -3.2341,0 0,-3.234092 z m 3.28891,0 3.23409,0 0,3.234092 -3.23409,0 0,-3.234092 z m 3.28891,0 3.23409,0 0,3.234092 -3.23409,0 0,-3.234092 z m 3.28892,0 3.23409,0 0,3.234092 -3.23409,0 0,-3.234092 z m 3.28891,0 3.23409,0 0,3.234092 -3.23409,0 0,-3.234092 z m 3.28891,0 3.23409,0 0,3.234092 -3.23409,0 0,-3.234092 z m 3.28891,0 3.2341,0 0,3.234092 -3.2341,0 0,-3.234092 z m 3.28891,0 3.2341,0 0,3.234092 -3.2341,0 0,-3.234092 z m 3.28891,0 3.23409,0 0,3.234092 -3.23409,0 0,-3.234092 z m 3.28892,0 3.23409,0 0,3.234092 -3.23409,0 0,-3.234092 z m 3.28891,0 3.23409,0 0,3.234092 -3.23409,0 0,-3.234092 z m 3.28891,0 3.23409,0 0,3.234092 -3.23409,0 0,-3.234092 z m 3.28892,0 3.2341,0 0,3.234092 -3.2341,0 0,-3.234092 z m 3.2889,0 3.2341,0 0,3.234092 -3.2341,0 0,-3.234092 z m 3.28892,0 3.23409,0 0,3.234092 -3.23409,0 0,-3.234092 z m 3.28892,0 3.2341,0 0,3.234092 -3.2341,0 0,-3.234092 z m 3.2889,0 3.23411,0 0,3.234092 -3.23411,0 0,-3.234092 z m 3.28891,0 3.23409,0 0,3.234092 -3.23409,0 0,-3.234092 z m 3.28892,0 3.2341,0 0,3.234092 -3.2341,0 0,-3.234092 z m 3.28891,0 3.23411,0 0,3.234092 -3.23411,0 0,-3.234092 z m 3.28891,0 3.2341,0 0,3.234092 -3.2341,0 0,-3.234092 z m 3.28892,0 3.2341,0 0,3.234092 -3.2341,0 0,-3.234092 z m 3.28891,0 3.23411,0 0,3.234092 -3.23411,0 0,-3.234092 z m 3.28891,0 3.2341,0 0,3.234092 -3.2341,0 0,-3.234092 z m 3.28893,0 3.23409,0 0,3.234092 -3.23409,0 0,-3.234092 z m 3.2889,0 3.2341,0 0,3.234092 -3.2341,0 0,-3.234092 z m 3.28891,0 3.2341,0 0,3.234092 -3.2341,0 0,-3.234092 z m 3.28893,0 3.23408,0 0,3.234092 -3.23408,0 0,-3.234092 z m 3.28889,0 3.23411,0 0,3.234092 -3.23411,0 0,-3.234092 z m 3.28891,0 3.2341,0 0,3.234092 -3.2341,0 0,-3.234092 z m 3.28893,0 3.23409,0 0,3.234092 -3.23409,0 0,-3.234092 z m -121.68977,3.288914 3.23409,0 0,3.234091 -3.23409,0 0,-3.234091 z m 3.2889,0 3.23411,0 0,3.234091 -3.23411,0 0,-3.234091 z m 3.28893,0 3.23408,0 0,3.234091 -3.23408,0 0,-3.234091 z m 3.28889,0 3.23411,0 0,3.234091 -3.23411,0 0,-3.234091 z m 3.28893,0 3.2341,0 0,3.234091 -3.2341,0 0,-3.234091 z m 3.28891,0 3.23409,0 0,3.234091 -3.23409,0 0,-3.234091 z m 3.28891,0 3.23409,0 0,3.234091 -3.23409,0 0,-3.234091 z m 3.28892,0 3.2341,0 0,3.234091 -3.2341,0 0,-3.234091 z m 3.28891,0 3.23409,0 0,3.234091 -3.23409,0 0,-3.234091 z m 3.28891,0 3.23409,0 0,3.234091 -3.23409,0 0,-3.234091 z m 3.28892,0 3.23409,0 0,3.234091 -3.23409,0 0,-3.234091 z m 3.28891,0 3.23409,0 0,3.234091 -3.23409,0 0,-3.234091 z m 3.28891,0 3.23409,0 0,3.234091 -3.23409,0 0,-3.234091 z m 3.28891,0 3.2341,0 0,3.234091 -3.2341,0 0,-3.234091 z m 3.28891,0 3.2341,0 0,3.234091 -3.2341,0 0,-3.234091 z m 3.28891,0 3.23409,0 0,3.234091 -3.23409,0 0,-3.234091 z m 3.28892,0 3.23409,0 0,3.234091 -3.23409,0 0,-3.234091 z m 3.28891,0 3.23409,0 0,3.234091 -3.23409,0 0,-3.234091 z m 3.28891,0 3.23409,0 0,3.234091 -3.23409,0 0,-3.234091 z m 3.28892,0 3.2341,0 0,3.234091 -3.2341,0 0,-3.234091 z m 3.2889,0 3.2341,0 0,3.234091 -3.2341,0 0,-3.234091 z m 3.28892,0 3.23409,0 0,3.234091 -3.23409,0 0,-3.234091 z m 3.28892,0 3.2341,0 0,3.234091 -3.2341,0 0,-3.234091 z m 3.2889,0 3.23411,0 0,3.234091 -3.23411,0 0,-3.234091 z m 3.28891,0 3.23409,0 0,3.234091 -3.23409,0 0,-3.234091 z m 3.28892,0 3.2341,0 0,3.234091 -3.2341,0 0,-3.234091 z m 3.28891,0 3.23411,0 0,3.234091 -3.23411,0 0,-3.234091 z m 3.28891,0 3.2341,0 0,3.234091 -3.2341,0 0,-3.234091 z m 3.28892,0 3.2341,0 0,3.234091 -3.2341,0 0,-3.234091 z m 3.28891,0 3.23411,0 0,3.234091 -3.23411,0 0,-3.234091 z m 3.28891,0 3.2341,0 0,3.234091 -3.2341,0 0,-3.234091 z m 3.28893,0 3.23409,0 0,3.234091 -3.23409,0 0,-3.234091 z m 3.2889,0 3.2341,0 0,3.234091 -3.2341,0 0,-3.234091 z m 3.28891,0 3.2341,0 0,3.234091 -3.2341,0 0,-3.234091 z m 3.28893,0 3.23408,0 0,3.234091 -3.23408,0 0,-3.234091 z m 3.28889,0 3.23411,0 0,3.234091 -3.23411,0 0,-3.234091 z m 3.28891,0 3.2341,0 0,3.234091 -3.2341,0 0,-3.234091 z m 3.28893,0 3.23409,0 0,3.234091 -3.23409,0 0,-3.234091 z m -121.68977,3.288906 3.23409,0 0,3.234098 -3.23409,0 0,-3.234098 z m 3.2889,0 3.23411,0 0,3.234098 -3.23411,0 0,-3.234098 z m 3.28893,0 3.23408,0 0,3.234098 -3.23408,0 0,-3.234098 z m 3.28889,0 3.23411,0 0,3.234098 -3.23411,0 0,-3.234098 z m 3.28893,0 3.2341,0 0,3.234098 -3.2341,0 0,-3.234098 z m 3.28891,0 3.23409,0 0,3.234098 -3.23409,0 0,-3.234098 z m 3.28891,0 3.23409,0 0,3.234098 -3.23409,0 0,-3.234098 z m 3.28892,0 3.2341,0 0,3.234098 -3.2341,0 0,-3.234098 z m 3.28891,0 3.23409,0 0,3.234098 -3.23409,0 0,-3.234098 z m 3.28891,0 3.23409,0 0,3.234098 -3.23409,0 0,-3.234098 z m 3.28892,0 3.23409,0 0,3.234098 -3.23409,0 0,-3.234098 z m 3.28891,0 3.23409,0 0,3.234098 -3.23409,0 0,-3.234098 z m 3.28891,0 3.23409,0 0,3.234098 -3.23409,0 0,-3.234098 z m 3.28891,0 3.2341,0 0,3.234098 -3.2341,0 0,-3.234098 z m 3.28891,0 3.2341,0 0,3.234098 -3.2341,0 0,-3.234098 z m 3.28891,0 3.23409,0 0,3.234098 -3.23409,0 0,-3.234098 z m 3.28892,0 3.23409,0 0,3.234098 -3.23409,0 0,-3.234098 z m 3.28891,0 3.23409,0 0,3.234098 -3.23409,0 0,-3.234098 z m 3.28891,0 3.23409,0 0,3.234098 -3.23409,0 0,-3.234098 z m 3.28892,0 3.2341,0 0,3.234098 -3.2341,0 0,-3.234098 z m 3.2889,0 3.2341,0 0,3.234098 -3.2341,0 0,-3.234098 z m 3.28892,0 3.23409,0 0,3.234098 -3.23409,0 0,-3.234098 z m 3.28892,0 3.2341,0 0,3.234098 -3.2341,0 0,-3.234098 z m 3.2889,0 3.23411,0 0,3.234098 -3.23411,0 0,-3.234098 z m 3.28891,0 3.23409,0 0,3.234098 -3.23409,0 0,-3.234098 z m 3.28892,0 3.2341,0 0,3.234098 -3.2341,0 0,-3.234098 z m 3.28891,0 3.23411,0 0,3.234098 -3.23411,0 0,-3.234098 z m 3.28891,0 3.2341,0 0,3.234098 -3.2341,0 0,-3.234098 z m 3.28892,0 3.2341,0 0,3.234098 -3.2341,0 0,-3.234098 z m 3.28891,0 3.23411,0 0,3.234098 -3.23411,0 0,-3.234098 z m 3.28891,0 3.2341,0 0,3.234098 -3.2341,0 0,-3.234098 z m 3.28893,0 3.23409,0 0,3.234098 -3.23409,0 0,-3.234098 z m 3.2889,0 3.2341,0 0,3.234098 -3.2341,0 0,-3.234098 z m 3.28891,0 3.2341,0 0,3.234098 -3.2341,0 0,-3.234098 z m 3.28893,0 3.23408,0 0,3.234098 -3.23408,0 0,-3.234098 z m 3.28889,0 3.23411,0 0,3.234098 -3.23411,0 0,-3.234098 z m 3.28891,0 3.2341,0 0,3.234098 -3.2341,0 0,-3.234098 z m 3.28893,0 3.23409,0 0,3.234098 -3.23409,0 0,-3.234098 z m -121.68977,3.288913 3.23409,0 0,3.234099 -3.23409,0 0,-3.234099 z m 3.2889,0 3.23411,0 0,3.234099 -3.23411,0 0,-3.234099 z m 3.28893,0 3.23408,0 0,3.234099 -3.23408,0 0,-3.234099 z m 3.28889,0 3.23411,0 0,3.234099 -3.23411,0 0,-3.234099 z m 3.28893,0 3.2341,0 0,3.234099 -3.2341,0 0,-3.234099 z m 3.28891,0 3.23409,0 0,3.234099 -3.23409,0 0,-3.234099 z m 3.28891,0 3.23409,0 0,3.234099 -3.23409,0 0,-3.234099 z m 3.28892,0 3.2341,0 0,3.234099 -3.2341,0 0,-3.234099 z m 3.28891,0 3.23409,0 0,3.234099 -3.23409,0 0,-3.234099 z m 3.28891,0 3.23409,0 0,3.234099 -3.23409,0 0,-3.234099 z m 3.28892,0 3.23409,0 0,3.234099 -3.23409,0 0,-3.234099 z m 3.28891,0 3.23409,0 0,3.234099 -3.23409,0 0,-3.234099 z m 3.28891,0 3.23409,0 0,3.234099 -3.23409,0 0,-3.234099 z m 3.28891,0 3.2341,0 0,3.234099 -3.2341,0 0,-3.234099 z m 3.28891,0 3.2341,0 0,3.234099 -3.2341,0 0,-3.234099 z m 3.28891,0 3.23409,0 0,3.234099 -3.23409,0 0,-3.234099 z m 3.28892,0 3.23409,0 0,3.234099 -3.23409,0 0,-3.234099 z m 3.28891,0 3.23409,0 0,3.234099 -3.23409,0 0,-3.234099 z m 3.28891,0 3.23409,0 0,3.234099 -3.23409,0 0,-3.234099 z m 3.28892,0 3.2341,0 0,3.234099 -3.2341,0 0,-3.234099 z m 3.2889,0 3.2341,0 0,3.234099 -3.2341,0 0,-3.234099 z m 3.28892,0 3.23409,0 0,3.234099 -3.23409,0 0,-3.234099 z m 3.28892,0 3.2341,0 0,3.234099 -3.2341,0 0,-3.234099 z m 3.2889,0 3.23411,0 0,3.234099 -3.23411,0 0,-3.234099 z m 3.28891,0 3.23409,0 0,3.234099 -3.23409,0 0,-3.234099 z m 3.28892,0 3.2341,0 0,3.234099 -3.2341,0 0,-3.234099 z m 3.28891,0 3.23411,0 0,3.234099 -3.23411,0 0,-3.234099 z m 3.28891,0 3.2341,0 0,3.234099 -3.2341,0 0,-3.234099 z m 3.28892,0 3.2341,0 0,3.234099 -3.2341,0 0,-3.234099 z m 3.28891,0 3.23411,0 0,3.234099 -3.23411,0 0,-3.234099 z m 3.28891,0 3.2341,0 0,3.234099 -3.2341,0 0,-3.234099 z m 3.28893,0 3.23409,0 0,3.234099 -3.23409,0 0,-3.234099 z m 3.2889,0 3.2341,0 0,3.234099 -3.2341,0 0,-3.234099 z m 3.28891,0 3.2341,0 0,3.234099 -3.2341,0 0,-3.234099 z m 3.28893,0 3.23408,0 0,3.234099 -3.23408,0 0,-3.234099 z m 3.28889,0 3.23411,0 0,3.234099 -3.23411,0 0,-3.234099 z m 3.28891,0 3.2341,0 0,3.234099 -3.2341,0 0,-3.234099 z m 3.28893,0 3.23409,0 0,3.234099 -3.23409,0 0,-3.234099 z m -121.68977,3.288914 3.23409,0 0,3.234098 -3.23409,0 0,-3.234098 z m 3.2889,0 3.23411,0 0,3.234098 -3.23411,0 0,-3.234098 z m 3.28893,0 3.23408,0 0,3.234098 -3.23408,0 0,-3.234098 z m 3.28889,0 3.23411,0 0,3.234098 -3.23411,0 0,-3.234098 z m 3.28893,0 3.2341,0 0,3.234098 -3.2341,0 0,-3.234098 z m 3.28891,0 3.23409,0 0,3.234098 -3.23409,0 0,-3.234098 z m 3.28891,0 3.23409,0 0,3.234098 -3.23409,0 0,-3.234098 z m 3.28892,0 3.2341,0 0,3.234098 -3.2341,0 0,-3.234098 z m 3.28891,0 3.23409,0 0,3.234098 -3.23409,0 0,-3.234098 z m 3.28891,0 3.23409,0 0,3.234098 -3.23409,0 0,-3.234098 z m 3.28892,0 3.23409,0 0,3.234098 -3.23409,0 0,-3.234098 z m 3.28891,0 3.23409,0 0,3.234098 -3.23409,0 0,-3.234098 z m 3.28891,0 3.23409,0 0,3.234098 -3.23409,0 0,-3.234098 z m 3.28891,0 3.2341,0 0,3.234098 -3.2341,0 0,-3.234098 z m 3.28891,0 3.2341,0 0,3.234098 -3.2341,0 0,-3.234098 z m 3.28891,0 3.23409,0 0,3.234098 -3.23409,0 0,-3.234098 z m 3.28892,0 3.23409,0 0,3.234098 -3.23409,0 0,-3.234098 z m 3.28891,0 3.23409,0 0,3.234098 -3.23409,0 0,-3.234098 z m 3.28891,0 3.23409,0 0,3.234098 -3.23409,0 0,-3.234098 z m 3.28892,0 3.2341,0 0,3.234098 -3.2341,0 0,-3.234098 z m 3.2889,0 3.2341,0 0,3.234098 -3.2341,0 0,-3.234098 z m 3.28892,0 3.23409,0 0,3.234098 -3.23409,0 0,-3.234098 z m 3.28892,0 3.2341,0 0,3.234098 -3.2341,0 0,-3.234098 z m 3.2889,0 3.23411,0 0,3.234098 -3.23411,0 0,-3.234098 z m 3.28891,0 3.23409,0 0,3.234098 -3.23409,0 0,-3.234098 z m 3.28892,0 3.2341,0 0,3.234098 -3.2341,0 0,-3.234098 z m 3.28891,0 3.23411,0 0,3.234098 -3.23411,0 0,-3.234098 z m 3.28891,0 3.2341,0 0,3.234098 -3.2341,0 0,-3.234098 z m 3.28892,0 3.2341,0 0,3.234098 -3.2341,0 0,-3.234098 z m 3.28891,0 3.23411,0 0,3.234098 -3.23411,0 0,-3.234098 z m 3.28891,0 3.2341,0 0,3.234098 -3.2341,0 0,-3.234098 z m 3.28893,0 3.23409,0 0,3.234098 -3.23409,0 0,-3.234098 z m 3.2889,0 3.2341,0 0,3.234098 -3.2341,0 0,-3.234098 z m 3.28891,0 3.2341,0 0,3.234098 -3.2341,0 0,-3.234098 z m 3.28893,0 3.23408,0 0,3.234098 -3.23408,0 0,-3.234098 z m 3.28889,0 3.23411,0 0,3.234098 -3.23411,0 0,-3.234098 z m 3.28891,0 3.2341,0 0,3.234098 -3.2341,0 0,-3.234098 z m 3.28893,0 3.23409,0 0,3.234098 -3.23409,0 0,-3.234098 z m -121.68977,3.288912 3.23409,0 0,3.234098 -3.23409,0 0,-3.234098 z m 3.2889,0 3.23411,0 0,3.234098 -3.23411,0 0,-3.234098 z m 3.28893,0 3.23408,0 0,3.234098 -3.23408,0 0,-3.234098 z m 3.28889,0 3.23411,0 0,3.234098 -3.23411,0 0,-3.234098 z m 3.28893,0 3.2341,0 0,3.234098 -3.2341,0 0,-3.234098 z m 3.28891,0 3.23409,0 0,3.234098 -3.23409,0 0,-3.234098 z m 3.28891,0 3.23409,0 0,3.234098 -3.23409,0 0,-3.234098 z m 3.28892,0 3.2341,0 0,3.234098 -3.2341,0 0,-3.234098 z m 3.28891,0 3.23409,0 0,3.234098 -3.23409,0 0,-3.234098 z m 3.28891,0 3.23409,0 0,3.234098 -3.23409,0 0,-3.234098 z m 3.28892,0 3.23409,0 0,3.234098 -3.23409,0 0,-3.234098 z m 3.28891,0 3.23409,0 0,3.234098 -3.23409,0 0,-3.234098 z m 3.28891,0 3.23409,0 0,3.234098 -3.23409,0 0,-3.234098 z m 3.28891,0 3.2341,0 0,3.234098 -3.2341,0 0,-3.234098 z m 3.28891,0 3.2341,0 0,3.234098 -3.2341,0 0,-3.234098 z m 3.28891,0 3.23409,0 0,3.234098 -3.23409,0 0,-3.234098 z m 3.28892,0 3.23409,0 0,3.234098 -3.23409,0 0,-3.234098 z m 3.28891,0 3.23409,0 0,3.234098 -3.23409,0 0,-3.234098 z m 3.28891,0 3.23409,0 0,3.234098 -3.23409,0 0,-3.234098 z m 3.28892,0 3.2341,0 0,3.234098 -3.2341,0 0,-3.234098 z m 3.2889,0 3.2341,0 0,3.234098 -3.2341,0 0,-3.234098 z m 3.28892,0 3.23409,0 0,3.234098 -3.23409,0 0,-3.234098 z m 3.28892,0 3.2341,0 0,3.234098 -3.2341,0 0,-3.234098 z m 3.2889,0 3.23411,0 0,3.234098 -3.23411,0 0,-3.234098 z m 3.28891,0 3.23409,0 0,3.234098 -3.23409,0 0,-3.234098 z m 3.28892,0 3.2341,0 0,3.234098 -3.2341,0 0,-3.234098 z m 3.28891,0 3.23411,0 0,3.234098 -3.23411,0 0,-3.234098 z m 3.28891,0 3.2341,0 0,3.234098 -3.2341,0 0,-3.234098 z m 3.28892,0 3.2341,0 0,3.234098 -3.2341,0 0,-3.234098 z m 3.28891,0 3.23411,0 0,3.234098 -3.23411,0 0,-3.234098 z m 3.28891,0 3.2341,0 0,3.234098 -3.2341,0 0,-3.234098 z m 3.28893,0 3.23409,0 0,3.234098 -3.23409,0 0,-3.234098 z m 3.2889,0 3.2341,0 0,3.234098 -3.2341,0 0,-3.234098 z m 3.28891,0 3.2341,0 0,3.234098 -3.2341,0 0,-3.234098 z m 3.28893,0 3.23408,0 0,3.234098 -3.23408,0 0,-3.234098 z m 3.28889,0 3.23411,0 0,3.234098 -3.23411,0 0,-3.234098 z m 3.28891,0 3.2341,0 0,3.234098 -3.2341,0 0,-3.234098 z m 3.28893,0 3.23409,0 0,3.234098 -3.23409,0 0,-3.234098 z m -121.68977,3.288915 3.23409,0 0,3.234097 -3.23409,0 0,-3.234097 z m 3.2889,0 3.23411,0 0,3.234097 -3.23411,0 0,-3.234097 z m 3.28893,0 3.23408,0 0,3.234097 -3.23408,0 0,-3.234097 z m 3.28889,0 3.23411,0 0,3.234097 -3.23411,0 0,-3.234097 z m 3.28893,0 3.2341,0 0,3.234097 -3.2341,0 0,-3.234097 z m 3.28891,0 3.23409,0 0,3.234097 -3.23409,0 0,-3.234097 z m 3.28891,0 3.23409,0 0,3.234097 -3.23409,0 0,-3.234097 z m 3.28892,0 3.2341,0 0,3.234097 -3.2341,0 0,-3.234097 z m 3.28891,0 3.23409,0 0,3.234097 -3.23409,0 0,-3.234097 z m 3.28891,0 3.23409,0 0,3.234097 -3.23409,0 0,-3.234097 z m 3.28892,0 3.23409,0 0,3.234097 -3.23409,0 0,-3.234097 z m 3.28891,0 3.23409,0 0,3.234097 -3.23409,0 0,-3.234097 z m 3.28891,0 3.23409,0 0,3.234097 -3.23409,0 0,-3.234097 z m 3.28891,0 3.2341,0 0,3.234097 -3.2341,0 0,-3.234097 z m 3.28891,0 3.2341,0 0,3.234097 -3.2341,0 0,-3.234097 z m 3.28891,0 3.23409,0 0,3.234097 -3.23409,0 0,-3.234097 z m 3.28892,0 3.23409,0 0,3.234097 -3.23409,0 0,-3.234097 z m 3.28891,0 3.23409,0 0,3.234097 -3.23409,0 0,-3.234097 z m 3.28891,0 3.23409,0 0,3.234097 -3.23409,0 0,-3.234097 z m 3.28892,0 3.2341,0 0,3.234097 -3.2341,0 0,-3.234097 z m 3.2889,0 3.2341,0 0,3.234097 -3.2341,0 0,-3.234097 z m 3.28892,0 3.23409,0 0,3.234097 -3.23409,0 0,-3.234097 z m 3.28892,0 3.2341,0 0,3.234097 -3.2341,0 0,-3.234097 z m 3.2889,0 3.23411,0 0,3.234097 -3.23411,0 0,-3.234097 z m 3.28891,0 3.23409,0 0,3.234097 -3.23409,0 0,-3.234097 z m 3.28892,0 3.2341,0 0,3.234097 -3.2341,0 0,-3.234097 z m 3.28891,0 3.23411,0 0,3.234097 -3.23411,0 0,-3.234097 z m 3.28891,0 3.2341,0 0,3.234097 -3.2341,0 0,-3.234097 z m 3.28892,0 3.2341,0 0,3.234097 -3.2341,0 0,-3.234097 z m 3.28891,0 3.23411,0 0,3.234097 -3.23411,0 0,-3.234097 z m 3.28891,0 3.2341,0 0,3.234097 -3.2341,0 0,-3.234097 z m 3.28893,0 3.23409,0 0,3.234097 -3.23409,0 0,-3.234097 z m 3.2889,0 3.2341,0 0,3.234097 -3.2341,0 0,-3.234097 z m 3.28891,0 3.2341,0 0,3.234097 -3.2341,0 0,-3.234097 z m 3.28893,0 3.23408,0 0,3.234097 -3.23408,0 0,-3.234097 z m 3.28889,0 3.23411,0 0,3.234097 -3.23411,0 0,-3.234097 z m 3.28891,0 3.2341,0 0,3.234097 -3.2341,0 0,-3.234097 z m 3.28893,0 3.23409,0 0,3.234097 -3.23409,0 0,-3.234097 z m -121.68977,3.288912 3.23409,0 0,3.234098 -3.23409,0 0,-3.234098 z m 3.2889,0 3.23411,0 0,3.234098 -3.23411,0 0,-3.234098 z m 3.28893,0 3.23408,0 0,3.234098 -3.23408,0 0,-3.234098 z m 3.28889,0 3.23411,0 0,3.234098 -3.23411,0 0,-3.234098 z m 3.28893,0 3.2341,0 0,3.234098 -3.2341,0 0,-3.234098 z m 3.28891,0 3.23409,0 0,3.234098 -3.23409,0 0,-3.234098 z m 3.28891,0 3.23409,0 0,3.234098 -3.23409,0 0,-3.234098 z m 3.28892,0 3.2341,0 0,3.234098 -3.2341,0 0,-3.234098 z m 3.28891,0 3.23409,0 0,3.234098 -3.23409,0 0,-3.234098 z m 3.28891,0 3.23409,0 0,3.234098 -3.23409,0 0,-3.234098 z m 3.28892,0 3.23409,0 0,3.234098 -3.23409,0 0,-3.234098 z m 3.28891,0 3.23409,0 0,3.234098 -3.23409,0 0,-3.234098 z m 3.28891,0 3.23409,0 0,3.234098 -3.23409,0 0,-3.234098 z m 3.28891,0 3.2341,0 0,3.234098 -3.2341,0 0,-3.234098 z m 3.28891,0 3.2341,0 0,3.234098 -3.2341,0 0,-3.234098 z m 3.28891,0 3.23409,0 0,3.234098 -3.23409,0 0,-3.234098 z m 3.28892,0 3.23409,0 0,3.234098 -3.23409,0 0,-3.234098 z m 3.28891,0 3.23409,0 0,3.234098 -3.23409,0 0,-3.234098 z m 3.28891,0 3.23409,0 0,3.234098 -3.23409,0 0,-3.234098 z m 3.28892,0 3.2341,0 0,3.234098 -3.2341,0 0,-3.234098 z m 3.2889,0 3.2341,0 0,3.234098 -3.2341,0 0,-3.234098 z m 3.28892,0 3.23409,0 0,3.234098 -3.23409,0 0,-3.234098 z m 3.28892,0 3.2341,0 0,3.234098 -3.2341,0 0,-3.234098 z m 3.2889,0 3.23411,0 0,3.234098 -3.23411,0 0,-3.234098 z m 3.28891,0 3.23409,0 0,3.234098 -3.23409,0 0,-3.234098 z m 3.28892,0 3.2341,0 0,3.234098 -3.2341,0 0,-3.234098 z m 3.28891,0 3.23411,0 0,3.234098 -3.23411,0 0,-3.234098 z m 3.28891,0 3.2341,0 0,3.234098 -3.2341,0 0,-3.234098 z m 3.28892,0 3.2341,0 0,3.234098 -3.2341,0 0,-3.234098 z m 3.28891,0 3.23411,0 0,3.234098 -3.23411,0 0,-3.234098 z m 3.28891,0 3.2341,0 0,3.234098 -3.2341,0 0,-3.234098 z m 3.28893,0 3.23409,0 0,3.234098 -3.23409,0 0,-3.234098 z m 3.2889,0 3.2341,0 0,3.234098 -3.2341,0 0,-3.234098 z m 3.28891,0 3.2341,0 0,3.234098 -3.2341,0 0,-3.234098 z m 3.28893,0 3.23408,0 0,3.234098 -3.23408,0 0,-3.234098 z m 3.28889,0 3.23411,0 0,3.234098 -3.23411,0 0,-3.234098 z m 3.28891,0 3.2341,0 0,3.234098 -3.2341,0 0,-3.234098 z m 3.28893,0 3.23409,0 0,3.234098 -3.23409,0 0,-3.234098 z m -121.68977,3.288913 3.23409,0 0,3.234099 -3.23409,0 0,-3.234099 z m 3.2889,0 3.23411,0 0,3.234099 -3.23411,0 0,-3.234099 z m 3.28893,0 3.23408,0 0,3.234099 -3.23408,0 0,-3.234099 z m 3.28889,0 3.23411,0 0,3.234099 -3.23411,0 0,-3.234099 z m 3.28893,0 3.2341,0 0,3.234099 -3.2341,0 0,-3.234099 z m 3.28891,0 3.23409,0 0,3.234099 -3.23409,0 0,-3.234099 z m 3.28891,0 3.23409,0 0,3.234099 -3.23409,0 0,-3.234099 z m 3.28892,0 3.2341,0 0,3.234099 -3.2341,0 0,-3.234099 z m 3.28891,0 3.23409,0 0,3.234099 -3.23409,0 0,-3.234099 z m 3.28891,0 3.23409,0 0,3.234099 -3.23409,0 0,-3.234099 z m 3.28892,0 3.23409,0 0,3.234099 -3.23409,0 0,-3.234099 z m 3.28891,0 3.23409,0 0,3.234099 -3.23409,0 0,-3.234099 z m 3.28891,0 3.23409,0 0,3.234099 -3.23409,0 0,-3.234099 z m 3.28891,0 3.2341,0 0,3.234099 -3.2341,0 0,-3.234099 z m 3.28891,0 3.2341,0 0,3.234099 -3.2341,0 0,-3.234099 z m 3.28891,0 3.23409,0 0,3.234099 -3.23409,0 0,-3.234099 z m 3.28892,0 3.23409,0 0,3.234099 -3.23409,0 0,-3.234099 z m 3.28891,0 3.23409,0 0,3.234099 -3.23409,0 0,-3.234099 z m 3.28891,0 3.23409,0 0,3.234099 -3.23409,0 0,-3.234099 z m 3.28892,0 3.2341,0 0,3.234099 -3.2341,0 0,-3.234099 z m 3.2889,0 3.2341,0 0,3.234099 -3.2341,0 0,-3.234099 z m 3.28892,0 3.23409,0 0,3.234099 -3.23409,0 0,-3.234099 z m 3.28892,0 3.2341,0 0,3.234099 -3.2341,0 0,-3.234099 z m 3.2889,0 3.23411,0 0,3.234099 -3.23411,0 0,-3.234099 z m 3.28891,0 3.23409,0 0,3.234099 -3.23409,0 0,-3.234099 z m 3.28892,0 3.2341,0 0,3.234099 -3.2341,0 0,-3.234099 z m 3.28891,0 3.23411,0 0,3.234099 -3.23411,0 0,-3.234099 z m 3.28891,0 3.2341,0 0,3.234099 -3.2341,0 0,-3.234099 z m 3.28892,0 3.2341,0 0,3.234099 -3.2341,0 0,-3.234099 z m 3.28891,0 3.23411,0 0,3.234099 -3.23411,0 0,-3.234099 z m 3.28891,0 3.2341,0 0,3.234099 -3.2341,0 0,-3.234099 z m 3.28893,0 3.23409,0 0,3.234099 -3.23409,0 0,-3.234099 z m 3.2889,0 3.2341,0 0,3.234099 -3.2341,0 0,-3.234099 z m 3.28891,0 3.2341,0 0,3.234099 -3.2341,0 0,-3.234099 z m 3.28893,0 3.23408,0 0,3.234099 -3.23408,0 0,-3.234099 z m 3.28889,0 3.23411,0 0,3.234099 -3.23411,0 0,-3.234099 z m 3.28891,0 3.2341,0 0,3.234099 -3.2341,0 0,-3.234099 z m 3.28893,0 3.23409,0 0,3.234099 -3.23409,0 0,-3.234099 z m -121.68977,3.288914 3.23409,0 0,3.234098 -3.23409,0 0,-3.234098 z m 3.2889,0 3.23411,0 0,3.234098 -3.23411,0 0,-3.234098 z m 3.28893,0 3.23408,0 0,3.234098 -3.23408,0 0,-3.234098 z m 3.28889,0 3.23411,0 0,3.234098 -3.23411,0 0,-3.234098 z m 3.28893,0 3.2341,0 0,3.234098 -3.2341,0 0,-3.234098 z m 3.28891,0 3.23409,0 0,3.234098 -3.23409,0 0,-3.234098 z m 3.28891,0 3.23409,0 0,3.234098 -3.23409,0 0,-3.234098 z m 3.28892,0 3.2341,0 0,3.234098 -3.2341,0 0,-3.234098 z m 3.28891,0 3.23409,0 0,3.234098 -3.23409,0 0,-3.234098 z m 3.28891,0 3.23409,0 0,3.234098 -3.23409,0 0,-3.234098 z m 3.28892,0 3.23409,0 0,3.234098 -3.23409,0 0,-3.234098 z m 3.28891,0 3.23409,0 0,3.234098 -3.23409,0 0,-3.234098 z m 3.28891,0 3.23409,0 0,3.234098 -3.23409,0 0,-3.234098 z m 3.28891,0 3.2341,0 0,3.234098 -3.2341,0 0,-3.234098 z m 3.28891,0 3.2341,0 0,3.234098 -3.2341,0 0,-3.234098 z m 3.28891,0 3.23409,0 0,3.234098 -3.23409,0 0,-3.234098 z m 3.28892,0 3.23409,0 0,3.234098 -3.23409,0 0,-3.234098 z m 3.28891,0 3.23409,0 0,3.234098 -3.23409,0 0,-3.234098 z m 3.28891,0 3.23409,0 0,3.234098 -3.23409,0 0,-3.234098 z m 3.28892,0 3.2341,0 0,3.234098 -3.2341,0 0,-3.234098 z m 3.2889,0 3.2341,0 0,3.234098 -3.2341,0 0,-3.234098 z m 3.28892,0 3.23409,0 0,3.234098 -3.23409,0 0,-3.234098 z m 3.28892,0 3.2341,0 0,3.234098 -3.2341,0 0,-3.234098 z m 3.2889,0 3.23411,0 0,3.234098 -3.23411,0 0,-3.234098 z m 3.28891,0 3.23409,0 0,3.234098 -3.23409,0 0,-3.234098 z m 3.28892,0 3.2341,0 0,3.234098 -3.2341,0 0,-3.234098 z m 3.28891,0 3.23411,0 0,3.234098 -3.23411,0 0,-3.234098 z m 3.28891,0 3.2341,0 0,3.234098 -3.2341,0 0,-3.234098 z m 3.28892,0 3.2341,0 0,3.234098 -3.2341,0 0,-3.234098 z m 3.28891,0 3.23411,0 0,3.234098 -3.23411,0 0,-3.234098 z m 3.28891,0 3.2341,0 0,3.234098 -3.2341,0 0,-3.234098 z m 3.28893,0 3.23409,0 0,3.234098 -3.23409,0 0,-3.234098 z m 3.2889,0 3.2341,0 0,3.234098 -3.2341,0 0,-3.234098 z m 3.28891,0 3.2341,0 0,3.234098 -3.2341,0 0,-3.234098 z m 3.28893,0 3.23408,0 0,3.234098 -3.23408,0 0,-3.234098 z m 3.28889,0 3.23411,0 0,3.234098 -3.23411,0 0,-3.234098 z m 3.28891,0 3.2341,0 0,3.234098 -3.2341,0 0,-3.234098 z m 3.28893,0 3.23409,0 0,3.234098 -3.23409,0 0,-3.234098 z m -121.68977,3.288913 3.23409,0 0,3.234098 -3.23409,0 0,-3.234098 z m 3.2889,0 3.23411,0 0,3.234098 -3.23411,0 0,-3.234098 z m 3.28893,0 3.23408,0 0,3.234098 -3.23408,0 0,-3.234098 z m 3.28889,0 3.23411,0 0,3.234098 -3.23411,0 0,-3.234098 z m 3.28893,0 3.2341,0 0,3.234098 -3.2341,0 0,-3.234098 z m 3.28891,0 3.23409,0 0,3.234098 -3.23409,0 0,-3.234098 z m 3.28891,0 3.23409,0 0,3.234098 -3.23409,0 0,-3.234098 z m 3.28892,0 3.2341,0 0,3.234098 -3.2341,0 0,-3.234098 z m 3.28891,0 3.23409,0 0,3.234098 -3.23409,0 0,-3.234098 z m 3.28891,0 3.23409,0 0,3.234098 -3.23409,0 0,-3.234098 z m 3.28892,0 3.23409,0 0,3.234098 -3.23409,0 0,-3.234098 z m 3.28891,0 3.23409,0 0,3.234098 -3.23409,0 0,-3.234098 z m 3.28891,0 3.23409,0 0,3.234098 -3.23409,0 0,-3.234098 z m 3.28891,0 3.2341,0 0,3.234098 -3.2341,0 0,-3.234098 z m 3.28891,0 3.2341,0 0,3.234098 -3.2341,0 0,-3.234098 z m 3.28891,0 3.23409,0 0,3.234098 -3.23409,0 0,-3.234098 z m 3.28892,0 3.23409,0 0,3.234098 -3.23409,0 0,-3.234098 z m 3.28891,0 3.23409,0 0,3.234098 -3.23409,0 0,-3.234098 z m 3.28891,0 3.23409,0 0,3.234098 -3.23409,0 0,-3.234098 z m 3.28892,0 3.2341,0 0,3.234098 -3.2341,0 0,-3.234098 z m 3.2889,0 3.2341,0 0,3.234098 -3.2341,0 0,-3.234098 z m 3.28892,0 3.23409,0 0,3.234098 -3.23409,0 0,-3.234098 z m 3.28892,0 3.2341,0 0,3.234098 -3.2341,0 0,-3.234098 z m 3.2889,0 3.23411,0 0,3.234098 -3.23411,0 0,-3.234098 z m 3.28891,0 3.23409,0 0,3.234098 -3.23409,0 0,-3.234098 z m 3.28892,0 3.2341,0 0,3.234098 -3.2341,0 0,-3.234098 z m 3.28891,0 3.23411,0 0,3.234098 -3.23411,0 0,-3.234098 z m 3.28891,0 3.2341,0 0,3.234098 -3.2341,0 0,-3.234098 z m 3.28892,0 3.2341,0 0,3.234098 -3.2341,0 0,-3.234098 z m 3.28891,0 3.23411,0 0,3.234098 -3.23411,0 0,-3.234098 z m 3.28891,0 3.2341,0 0,3.234098 -3.2341,0 0,-3.234098 z m 3.28893,0 3.23409,0 0,3.234098 -3.23409,0 0,-3.234098 z m 3.2889,0 3.2341,0 0,3.234098 -3.2341,0 0,-3.234098 z m 3.28891,0 3.2341,0 0,3.234098 -3.2341,0 0,-3.234098 z m 3.28893,0 3.23408,0 0,3.234098 -3.23408,0 0,-3.234098 z m 3.28889,0 3.23411,0 0,3.234098 -3.23411,0 0,-3.234098 z m 3.28891,0 3.2341,0 0,3.234098 -3.2341,0 0,-3.234098 z m 3.28893,0 3.23409,0 0,3.234098 -3.23409,0 0,-3.234098 z m -121.68977,3.288913 3.23409,0 0,3.2340988 -3.23409,0 0,-3.2340988 z m 3.2889,0 3.23411,0 0,3.2340988 -3.23411,0 0,-3.2340988 z m 3.28893,0 3.23408,0 0,3.2340988 -3.23408,0 0,-3.2340988 z m 3.28889,0 3.23411,0 0,3.2340988 -3.23411,0 0,-3.2340988 z m 3.28893,0 3.2341,0 0,3.2340988 -3.2341,0 0,-3.2340988 z m 3.28891,0 3.23409,0 0,3.2340988 -3.23409,0 0,-3.2340988 z m 3.28891,0 3.23409,0 0,3.2340988 -3.23409,0 0,-3.2340988 z m 3.28892,0 3.2341,0 0,3.2340988 -3.2341,0 0,-3.2340988 z m 3.28891,0 3.23409,0 0,3.2340988 -3.23409,0 0,-3.2340988 z m 3.28891,0 3.23409,0 0,3.2340988 -3.23409,0 0,-3.2340988 z m 3.28892,0 3.23409,0 0,3.2340988 -3.23409,0 0,-3.2340988 z m 3.28891,0 3.23409,0 0,3.2340988 -3.23409,0 0,-3.2340988 z m 3.28891,0 3.23409,0 0,3.2340988 -3.23409,0 0,-3.2340988 z m 3.28891,0 3.2341,0 0,3.2340988 -3.2341,0 0,-3.2340988 z m 3.28891,0 3.2341,0 0,3.2340988 -3.2341,0 0,-3.2340988 z m 3.28891,0 3.23409,0 0,3.2340988 -3.23409,0 0,-3.2340988 z m 3.28892,0 3.23409,0 0,3.2340988 -3.23409,0 0,-3.2340988 z m 3.28891,0 3.23409,0 0,3.2340988 -3.23409,0 0,-3.2340988 z m 3.28891,0 3.23409,0 0,3.2340988 -3.23409,0 0,-3.2340988 z m 3.28892,0 3.2341,0 0,3.2340988 -3.2341,0 0,-3.2340988 z m 3.2889,0 3.2341,0 0,3.2340988 -3.2341,0 0,-3.2340988 z m 3.28892,0 3.23409,0 0,3.2340988 -3.23409,0 0,-3.2340988 z m 3.28892,0 3.2341,0 0,3.2340988 -3.2341,0 0,-3.2340988 z m 3.2889,0 3.23411,0 0,3.2340988 -3.23411,0 0,-3.2340988 z m 3.28891,0 3.23409,0 0,3.2340988 -3.23409,0 0,-3.2340988 z m 3.28892,0 3.2341,0 0,3.2340988 -3.2341,0 0,-3.2340988 z m 3.28891,0 3.23411,0 0,3.2340988 -3.23411,0 0,-3.2340988 z m 3.28891,0 3.2341,0 0,3.2340988 -3.2341,0 0,-3.2340988 z m 3.28892,0 3.2341,0 0,3.2340988 -3.2341,0 0,-3.2340988 z m 3.28891,0 3.23411,0 0,3.2340988 -3.23411,0 0,-3.2340988 z m 3.28891,0 3.2341,0 0,3.2340988 -3.2341,0 0,-3.2340988 z m 3.28893,0 3.23409,0 0,3.2340988 -3.23409,0 0,-3.2340988 z m 3.2889,0 3.2341,0 0,3.2340988 -3.2341,0 0,-3.2340988 z m 3.28891,0 3.2341,0 0,3.2340988 -3.2341,0 0,-3.2340988 z m 3.28893,0 3.23408,0 0,3.2340988 -3.23408,0 0,-3.2340988 z m 3.28889,0 3.23411,0 0,3.2340988 -3.23411,0 0,-3.2340988 z m 3.28891,0 3.2341,0 0,3.2340988 -3.2341,0 0,-3.2340988 z m 3.28893,0 3.23409,0 0,3.2340988 -3.23409,0 0,-3.2340988 z m -121.68977,3.2889148 3.23409,0 0,3.2340907 -3.23409,0 0,-3.2340907 z m 3.2889,0 3.23411,0 0,3.2340907 -3.23411,0 0,-3.2340907 z m 3.28893,0 3.23408,0 0,3.2340907 -3.23408,0 0,-3.2340907 z m 3.28889,0 3.23411,0 0,3.2340907 -3.23411,0 0,-3.2340907 z m 3.28893,0 3.2341,0 0,3.2340907 -3.2341,0 0,-3.2340907 z m 3.28891,0 3.23409,0 0,3.2340907 -3.23409,0 0,-3.2340907 z m 3.28891,0 3.23409,0 0,3.2340907 -3.23409,0 0,-3.2340907 z m 3.28892,0 3.2341,0 0,3.2340907 -3.2341,0 0,-3.2340907 z m 3.28891,0 3.23409,0 0,3.2340907 -3.23409,0 0,-3.2340907 z m 3.28891,0 3.23409,0 0,3.2340907 -3.23409,0 0,-3.2340907 z m 3.28892,0 3.23409,0 0,3.2340907 -3.23409,0 0,-3.2340907 z m 3.28891,0 3.23409,0 0,3.2340907 -3.23409,0 0,-3.2340907 z m 3.28891,0 3.23409,0 0,3.2340907 -3.23409,0 0,-3.2340907 z m 3.28891,0 3.2341,0 0,3.2340907 -3.2341,0 0,-3.2340907 z m 3.28891,0 3.2341,0 0,3.2340907 -3.2341,0 0,-3.2340907 z m 3.28891,0 3.23409,0 0,3.2340907 -3.23409,0 0,-3.2340907 z m 3.28892,0 3.23409,0 0,3.2340907 -3.23409,0 0,-3.2340907 z m 3.28891,0 3.23409,0 0,3.2340907 -3.23409,0 0,-3.2340907 z m 3.28891,0 3.23409,0 0,3.2340907 -3.23409,0 0,-3.2340907 z m 3.28892,0 3.2341,0 0,3.2340907 -3.2341,0 0,-3.2340907 z m 3.2889,0 3.2341,0 0,3.2340907 -3.2341,0 0,-3.2340907 z m 3.28892,0 3.23409,0 0,3.2340907 -3.23409,0 0,-3.2340907 z m 3.28892,0 3.2341,0 0,3.2340907 -3.2341,0 0,-3.2340907 z m 3.2889,0 3.23411,0 0,3.2340907 -3.23411,0 0,-3.2340907 z m 3.28891,0 3.23409,0 0,3.2340907 -3.23409,0 0,-3.2340907 z m 3.28892,0 3.2341,0 0,3.2340907 -3.2341,0 0,-3.2340907 z m 3.28891,0 3.23411,0 0,3.2340907 -3.23411,0 0,-3.2340907 z m 3.28891,0 3.2341,0 0,3.2340907 -3.2341,0 0,-3.2340907 z m 3.28892,0 3.2341,0 0,3.2340907 -3.2341,0 0,-3.2340907 z m 3.28891,0 3.23411,0 0,3.2340907 -3.23411,0 0,-3.2340907 z m 3.28891,0 3.2341,0 0,3.2340907 -3.2341,0 0,-3.2340907 z m 3.28893,0 3.23409,0 0,3.2340907 -3.23409,0 0,-3.2340907 z m 3.2889,0 3.2341,0 0,3.2340907 -3.2341,0 0,-3.2340907 z m 3.28891,0 3.2341,0 0,3.2340907 -3.2341,0 0,-3.2340907 z m 3.28893,0 3.23408,0 0,3.2340907 -3.23408,0 0,-3.2340907 z m 3.28889,0 3.23411,0 0,3.2340907 -3.23411,0 0,-3.2340907 z m 3.28891,0 3.2341,0 0,3.2340907 -3.2341,0 0,-3.2340907 z m 3.28893,0 3.23409,0 0,3.2340907 -3.23409,0 0,-3.2340907 z m -121.68977,3.2889067 3.23409,0 0,3.23409496 -3.23409,0 0,-3.23409496 z m 3.2889,0 3.23411,0 0,3.23409496 -3.23411,0 0,-3.23409496 z m 3.28893,0 3.23408,0 0,3.23409496 -3.23408,0 0,-3.23409496 z m 3.28889,0 3.23411,0 0,3.23409496 -3.23411,0 0,-3.23409496 z m 3.28893,0 3.2341,0 0,3.23409496 -3.2341,0 0,-3.23409496 z m 3.28891,0 3.23409,0 0,3.23409496 -3.23409,0 0,-3.23409496 z m 3.28891,0 3.23409,0 0,3.23409496 -3.23409,0 0,-3.23409496 z m 3.28892,0 3.2341,0 0,3.23409496 -3.2341,0 0,-3.23409496 z m 3.28891,0 3.23409,0 0,3.23409496 -3.23409,0 0,-3.23409496 z m 3.28891,0 3.23409,0 0,3.23409496 -3.23409,0 0,-3.23409496 z m 3.28892,0 3.23409,0 0,3.23409496 -3.23409,0 0,-3.23409496 z m 3.28891,0 3.23409,0 0,3.23409496 -3.23409,0 0,-3.23409496 z m 3.28891,0 3.23409,0 0,3.23409496 -3.23409,0 0,-3.23409496 z m 3.28891,0 3.2341,0 0,3.23409496 -3.2341,0 0,-3.23409496 z m 3.28891,0 3.2341,0 0,3.23409496 -3.2341,0 0,-3.23409496 z m 3.28891,0 3.23409,0 0,3.23409496 -3.23409,0 0,-3.23409496 z m 3.28892,0 3.23409,0 0,3.23409496 -3.23409,0 0,-3.23409496 z m 3.28891,0 3.23409,0 0,3.23409496 -3.23409,0 0,-3.23409496 z m 3.28891,0 3.23409,0 0,3.23409496 -3.23409,0 0,-3.23409496 z m 3.28892,0 3.2341,0 0,3.23409496 -3.2341,0 0,-3.23409496 z m 3.2889,0 3.2341,0 0,3.23409496 -3.2341,0 0,-3.23409496 z m 3.28892,0 3.23409,0 0,3.23409496 -3.23409,0 0,-3.23409496 z m 3.28892,0 3.2341,0 0,3.23409496 -3.2341,0 0,-3.23409496 z m 3.2889,0 3.23411,0 0,3.23409496 -3.23411,0 0,-3.23409496 z m 3.28891,0 3.23409,0 0,3.23409496 -3.23409,0 0,-3.23409496 z m 3.28892,0 3.2341,0 0,3.23409496 -3.2341,0 0,-3.23409496 z m 3.28891,0 3.23411,0 0,3.23409496 -3.23411,0 0,-3.23409496 z m 3.28891,0 3.2341,0 0,3.23409496 -3.2341,0 0,-3.23409496 z m 3.28892,0 3.2341,0 0,3.23409496 -3.2341,0 0,-3.23409496 z m 3.28891,0 3.23411,0 0,3.23409496 -3.23411,0 0,-3.23409496 z m 3.28891,0 3.2341,0 0,3.23409496 -3.2341,0 0,-3.23409496 z m 3.28893,0 3.23409,0 0,3.23409496 -3.23409,0 0,-3.23409496 z m 3.2889,0 3.2341,0 0,3.23409496 -3.2341,0 0,-3.23409496 z m 3.28891,0 3.2341,0 0,3.23409496 -3.2341,0 0,-3.23409496 z m 3.28893,0 3.23408,0 0,3.23409496 -3.23408,0 0,-3.23409496 z m 3.28889,0 3.23411,0 0,3.23409496 -3.23411,0 0,-3.23409496 z m 3.28891,0 3.2341,0 0,3.23409496 -3.2341,0 0,-3.23409496 z m 3.28893,0 3.23409,0 0,3.23409496 -3.23409,0 0,-3.23409496 z m -121.68977,3.28891496 3.23409,0 0,3.23409154 -3.23409,0 0,-3.23409154 z m 3.2889,0 3.23411,0 0,3.23409154 -3.23411,0 0,-3.23409154 z m 3.28893,0 3.23408,0 0,3.23409154 -3.23408,0 0,-3.23409154 z m 3.28889,0 3.23411,0 0,3.23409154 -3.23411,0 0,-3.23409154 z m 3.28893,0 3.2341,0 0,3.23409154 -3.2341,0 0,-3.23409154 z m 3.28891,0 3.23409,0 0,3.23409154 -3.23409,0 0,-3.23409154 z m 3.28891,0 3.23409,0 0,3.23409154 -3.23409,0 0,-3.23409154 z m 3.28892,0 3.2341,0 0,3.23409154 -3.2341,0 0,-3.23409154 z m 3.28891,0 3.23409,0 0,3.23409154 -3.23409,0 0,-3.23409154 z m 3.28891,0 3.23409,0 0,3.23409154 -3.23409,0 0,-3.23409154 z m 3.28892,0 3.23409,0 0,3.23409154 -3.23409,0 0,-3.23409154 z m 3.28891,0 3.23409,0 0,3.23409154 -3.23409,0 0,-3.23409154 z m 3.28891,0 3.23409,0 0,3.23409154 -3.23409,0 0,-3.23409154 z m 3.28891,0 3.2341,0 0,3.23409154 -3.2341,0 0,-3.23409154 z m 3.28891,0 3.2341,0 0,3.23409154 -3.2341,0 0,-3.23409154 z m 3.28891,0 3.23409,0 0,3.23409154 -3.23409,0 0,-3.23409154 z m 3.28892,0 3.23409,0 0,3.23409154 -3.23409,0 0,-3.23409154 z m 3.28891,0 3.23409,0 0,3.23409154 -3.23409,0 0,-3.23409154 z m 3.28891,0 3.23409,0 0,3.23409154 -3.23409,0 0,-3.23409154 z m 3.28892,0 3.2341,0 0,3.23409154 -3.2341,0 0,-3.23409154 z m 3.2889,0 3.2341,0 0,3.23409154 -3.2341,0 0,-3.23409154 z m 3.28892,0 3.23409,0 0,3.23409154 -3.23409,0 0,-3.23409154 z m 3.28892,0 3.2341,0 0,3.23409154 -3.2341,0 0,-3.23409154 z m 3.2889,0 3.23411,0 0,3.23409154 -3.23411,0 0,-3.23409154 z m 3.28891,0 3.23409,0 0,3.23409154 -3.23409,0 0,-3.23409154 z m 3.28892,0 3.2341,0 0,3.23409154 -3.2341,0 0,-3.23409154 z m 3.28891,0 3.23411,0 0,3.23409154 -3.23411,0 0,-3.23409154 z m 3.28891,0 3.2341,0 0,3.23409154 -3.2341,0 0,-3.23409154 z m 3.28892,0 3.2341,0 0,3.23409154 -3.2341,0 0,-3.23409154 z m 3.28891,0 3.23411,0 0,3.23409154 -3.23411,0 0,-3.23409154 z m 3.28891,0 3.2341,0 0,3.23409154 -3.2341,0 0,-3.23409154 z m 3.28893,0 3.23409,0 0,3.23409154 -3.23409,0 0,-3.23409154 z m 3.2889,0 3.2341,0 0,3.23409154 -3.2341,0 0,-3.23409154 z m 3.28891,0 3.2341,0 0,3.23409154 -3.2341,0 0,-3.23409154 z m 3.28893,0 3.23408,0 0,3.23409154 -3.23408,0 0,-3.23409154 z m 3.28889,0 3.23411,0 0,3.23409154 -3.23411,0 0,-3.23409154 z m 3.28891,0 3.2341,0 0,3.23409154 -3.2341,0 0,-3.23409154 z m 3.28893,0 3.23409,0 0,3.23409154 -3.23409,0 0,-3.23409154 z M 199.25413,2.710244 l 3.23409,0 0,3.234098 -3.23409,0 0,-3.234098 z m 3.2889,0 3.23411,0 0,3.234098 -3.23411,0 0,-3.234098 z m 3.28893,0 3.23408,0 0,3.234098 -3.23408,0 0,-3.234098 z m 3.28889,0 3.23411,0 0,3.234098 -3.23411,0 0,-3.234098 z m 3.28893,0 3.2341,0 0,3.234098 -3.2341,0 0,-3.234098 z m 3.28891,0 3.23409,0 0,3.234098 -3.23409,0 0,-3.234098 z m 3.28891,0 3.23409,0 0,3.234098 -3.23409,0 0,-3.234098 z m 3.28892,0 3.2341,0 0,3.234098 -3.2341,0 0,-3.234098 z m 3.28891,0 3.23409,0 0,3.234098 -3.23409,0 0,-3.234098 z m 3.28891,0 3.23409,0 0,3.234098 -3.23409,0 0,-3.234098 z m 3.28892,0 3.23409,0 0,3.234098 -3.23409,0 0,-3.234098 z m 3.28891,0 3.23409,0 0,3.234098 -3.23409,0 0,-3.234098 z m 3.28891,0 3.23409,0 0,3.234098 -3.23409,0 0,-3.234098 z m 3.28891,0 3.2341,0 0,3.234098 -3.2341,0 0,-3.234098 z m 3.28891,0 3.2341,0 0,3.234098 -3.2341,0 0,-3.234098 z m 3.28891,0 3.23409,0 0,3.234098 -3.23409,0 0,-3.234098 z m 3.28892,0 3.23409,0 0,3.234098 -3.23409,0 0,-3.234098 z m 3.28891,0 3.23409,0 0,3.234098 -3.23409,0 0,-3.234098 z m 3.28891,0 3.23409,0 0,3.234098 -3.23409,0 0,-3.234098 z m 3.28892,0 3.2341,0 0,3.234098 -3.2341,0 0,-3.234098 z m 3.2889,0 3.2341,0 0,3.234098 -3.2341,0 0,-3.234098 z m 3.28892,0 3.23409,0 0,3.234098 -3.23409,0 0,-3.234098 z m 3.28892,0 3.2341,0 0,3.234098 -3.2341,0 0,-3.234098 z m 3.2889,0 3.23411,0 0,3.234098 -3.23411,0 0,-3.234098 z m 3.28891,0 3.23409,0 0,3.234098 -3.23409,0 0,-3.234098 z m 3.28892,0 3.2341,0 0,3.234098 -3.2341,0 0,-3.234098 z m 3.28891,0 3.23411,0 0,3.234098 -3.23411,0 0,-3.234098 z m 3.28891,0 3.2341,0 0,3.234098 -3.2341,0 0,-3.234098 z m 3.28892,0 3.2341,0 0,3.234098 -3.2341,0 0,-3.234098 z m 3.28891,0 3.23411,0 0,3.234098 -3.23411,0 0,-3.234098 z m 3.28891,0 3.2341,0 0,3.234098 -3.2341,0 0,-3.234098 z m 3.28893,0 3.23409,0 0,3.234098 -3.23409,0 0,-3.234098 z m 3.2889,0 3.2341,0 0,3.234098 -3.2341,0 0,-3.234098 z m 3.28891,0 3.2341,0 0,3.234098 -3.2341,0 0,-3.234098 z m 3.28893,0 3.23408,0 0,3.234098 -3.23408,0 0,-3.234098 z m 3.28889,0 3.23411,0 0,3.234098 -3.23411,0 0,-3.234098 z m 3.28891,0 3.2341,0 0,3.234098 -3.2341,0 0,-3.234098 z m 3.28893,0 3.23409,0 0,3.234098 -3.23409,0 0,-3.234098 z m -121.68977,3.288911 3.23409,0 0,3.234098 -3.23409,0 0,-3.234098 z m 3.2889,0 3.23411,0 0,3.234098 -3.23411,0 0,-3.234098 z m 3.28893,0 3.23408,0 0,3.234098 -3.23408,0 0,-3.234098 z m 3.28889,0 3.23411,0 0,3.234098 -3.23411,0 0,-3.234098 z m 3.28893,0 3.2341,0 0,3.234098 -3.2341,0 0,-3.234098 z m 3.28891,0 3.23409,0 0,3.234098 -3.23409,0 0,-3.234098 z m 3.28891,0 3.23409,0 0,3.234098 -3.23409,0 0,-3.234098 z m 3.28892,0 3.2341,0 0,3.234098 -3.2341,0 0,-3.234098 z m 3.28891,0 3.23409,0 0,3.234098 -3.23409,0 0,-3.234098 z m 3.28891,0 3.23409,0 0,3.234098 -3.23409,0 0,-3.234098 z m 3.28892,0 3.23409,0 0,3.234098 -3.23409,0 0,-3.234098 z m 3.28891,0 3.23409,0 0,3.234098 -3.23409,0 0,-3.234098 z m 3.28891,0 3.23409,0 0,3.234098 -3.23409,0 0,-3.234098 z m 3.28891,0 3.2341,0 0,3.234098 -3.2341,0 0,-3.234098 z m 3.28891,0 3.2341,0 0,3.234098 -3.2341,0 0,-3.234098 z m 3.28891,0 3.23409,0 0,3.234098 -3.23409,0 0,-3.234098 z m 3.28892,0 3.23409,0 0,3.234098 -3.23409,0 0,-3.234098 z m 3.28891,0 3.23409,0 0,3.234098 -3.23409,0 0,-3.234098 z m 3.28891,0 3.23409,0 0,3.234098 -3.23409,0 0,-3.234098 z m 3.28892,0 3.2341,0 0,3.234098 -3.2341,0 0,-3.234098 z m 3.2889,0 3.2341,0 0,3.234098 -3.2341,0 0,-3.234098 z m 3.28892,0 3.23409,0 0,3.234098 -3.23409,0 0,-3.234098 z m 3.28892,0 3.2341,0 0,3.234098 -3.2341,0 0,-3.234098 z m 3.2889,0 3.23411,0 0,3.234098 -3.23411,0 0,-3.234098 z m 3.28891,0 3.23409,0 0,3.234098 -3.23409,0 0,-3.234098 z m 3.28892,0 3.2341,0 0,3.234098 -3.2341,0 0,-3.234098 z m 3.28891,0 3.23411,0 0,3.234098 -3.23411,0 0,-3.234098 z m 3.28891,0 3.2341,0 0,3.234098 -3.2341,0 0,-3.234098 z m 3.28892,0 3.2341,0 0,3.234098 -3.2341,0 0,-3.234098 z m 3.28891,0 3.23411,0 0,3.234098 -3.23411,0 0,-3.234098 z m 3.28891,0 3.2341,0 0,3.234098 -3.2341,0 0,-3.234098 z m 3.28893,0 3.23409,0 0,3.234098 -3.23409,0 0,-3.234098 z m 3.2889,0 3.2341,0 0,3.234098 -3.2341,0 0,-3.234098 z m 3.28891,0 3.2341,0 0,3.234098 -3.2341,0 0,-3.234098 z m 3.28893,0 3.23408,0 0,3.234098 -3.23408,0 0,-3.234098 z m 3.28889,0 3.23411,0 0,3.234098 -3.23411,0 0,-3.234098 z m 3.28891,0 3.2341,0 0,3.234098 -3.2341,0 0,-3.234098 z m 3.28893,0 3.23409,0 0,3.234098 -3.23409,0 0,-3.234098 z m -121.68977,3.288911 3.23409,0 0,3.234104 -3.23409,0 0,-3.234104 z m 3.2889,0 3.23411,0 0,3.234104 -3.23411,0 0,-3.234104 z m 3.28893,0 3.23408,0 0,3.234104 -3.23408,0 0,-3.234104 z m 3.28889,0 3.23411,0 0,3.234104 -3.23411,0 0,-3.234104 z m 3.28893,0 3.2341,0 0,3.234104 -3.2341,0 0,-3.234104 z m 3.28891,0 3.23409,0 0,3.234104 -3.23409,0 0,-3.234104 z m 3.28891,0 3.23409,0 0,3.234104 -3.23409,0 0,-3.234104 z m 3.28892,0 3.2341,0 0,3.234104 -3.2341,0 0,-3.234104 z m 3.28891,0 3.23409,0 0,3.234104 -3.23409,0 0,-3.234104 z m 3.28891,0 3.23409,0 0,3.234104 -3.23409,0 0,-3.234104 z m 3.28892,0 3.23409,0 0,3.234104 -3.23409,0 0,-3.234104 z m 3.28891,0 3.23409,0 0,3.234104 -3.23409,0 0,-3.234104 z m 3.28891,0 3.23409,0 0,3.234104 -3.23409,0 0,-3.234104 z m 3.28891,0 3.2341,0 0,3.234104 -3.2341,0 0,-3.234104 z m 3.28891,0 3.2341,0 0,3.234104 -3.2341,0 0,-3.234104 z m 3.28891,0 3.23409,0 0,3.234104 -3.23409,0 0,-3.234104 z m 3.28892,0 3.23409,0 0,3.234104 -3.23409,0 0,-3.234104 z m 3.28891,0 3.23409,0 0,3.234104 -3.23409,0 0,-3.234104 z m 3.28891,0 3.23409,0 0,3.234104 -3.23409,0 0,-3.234104 z m 3.28892,0 3.2341,0 0,3.234104 -3.2341,0 0,-3.234104 z m 3.2889,0 3.2341,0 0,3.234104 -3.2341,0 0,-3.234104 z m 3.28892,0 3.23409,0 0,3.234104 -3.23409,0 0,-3.234104 z m 3.28892,0 3.2341,0 0,3.234104 -3.2341,0 0,-3.234104 z m 3.2889,0 3.23411,0 0,3.234104 -3.23411,0 0,-3.234104 z m 3.28891,0 3.23409,0 0,3.234104 -3.23409,0 0,-3.234104 z m 3.28892,0 3.2341,0 0,3.234104 -3.2341,0 0,-3.234104 z m 3.28891,0 3.23411,0 0,3.234104 -3.23411,0 0,-3.234104 z m 3.28891,0 3.2341,0 0,3.234104 -3.2341,0 0,-3.234104 z m 3.28892,0 3.2341,0 0,3.234104 -3.2341,0 0,-3.234104 z m 3.28891,0 3.23411,0 0,3.234104 -3.23411,0 0,-3.234104 z m 3.28891,0 3.2341,0 0,3.234104 -3.2341,0 0,-3.234104 z m 3.28893,0 3.23409,0 0,3.234104 -3.23409,0 0,-3.234104 z m 3.2889,0 3.2341,0 0,3.234104 -3.2341,0 0,-3.234104 z m 3.28891,0 3.2341,0 0,3.234104 -3.2341,0 0,-3.234104 z m 3.28893,0 3.23408,0 0,3.234104 -3.23408,0 0,-3.234104 z m 3.28889,0 3.23411,0 0,3.234104 -3.23411,0 0,-3.234104 z m 3.28891,0 3.2341,0 0,3.234104 -3.2341,0 0,-3.234104 z m 3.28893,0 3.23409,0 0,3.234104 -3.23409,0 0,-3.234104 z m -121.68977,3.288924 3.23409,0 0,3.234096 -3.23409,0 0,-3.234096 z m 3.2889,0 3.23411,0 0,3.234096 -3.23411,0 0,-3.234096 z m 3.28893,0 3.23408,0 0,3.234096 -3.23408,0 0,-3.234096 z m 3.28889,0 3.23411,0 0,3.234096 -3.23411,0 0,-3.234096 z m 3.28893,0 3.2341,0 0,3.234096 -3.2341,0 0,-3.234096 z m 3.28891,0 3.23409,0 0,3.234096 -3.23409,0 0,-3.234096 z m 3.28891,0 3.23409,0 0,3.234096 -3.23409,0 0,-3.234096 z m 3.28892,0 3.2341,0 0,3.234096 -3.2341,0 0,-3.234096 z m 3.28891,0 3.23409,0 0,3.234096 -3.23409,0 0,-3.234096 z m 3.28891,0 3.23409,0 0,3.234096 -3.23409,0 0,-3.234096 z m 3.28892,0 3.23409,0 0,3.234096 -3.23409,0 0,-3.234096 z m 3.28891,0 3.23409,0 0,3.234096 -3.23409,0 0,-3.234096 z m 3.28891,0 3.23409,0 0,3.234096 -3.23409,0 0,-3.234096 z m 3.28891,0 3.2341,0 0,3.234096 -3.2341,0 0,-3.234096 z m 3.28891,0 3.2341,0 0,3.234096 -3.2341,0 0,-3.234096 z m 3.28891,0 3.23409,0 0,3.234096 -3.23409,0 0,-3.234096 z m 3.28892,0 3.23409,0 0,3.234096 -3.23409,0 0,-3.234096 z m 3.28891,0 3.23409,0 0,3.234096 -3.23409,0 0,-3.234096 z m 3.28891,0 3.23409,0 0,3.234096 -3.23409,0 0,-3.234096 z m 3.28892,0 3.2341,0 0,3.234096 -3.2341,0 0,-3.234096 z m 3.2889,0 3.2341,0 0,3.234096 -3.2341,0 0,-3.234096 z m 3.28892,0 3.23409,0 0,3.234096 -3.23409,0 0,-3.234096 z m 3.28892,0 3.2341,0 0,3.234096 -3.2341,0 0,-3.234096 z m 3.2889,0 3.23411,0 0,3.234096 -3.23411,0 0,-3.234096 z m 3.28891,0 3.23409,0 0,3.234096 -3.23409,0 0,-3.234096 z m 3.28892,0 3.2341,0 0,3.234096 -3.2341,0 0,-3.234096 z m 3.28891,0 3.23411,0 0,3.234096 -3.23411,0 0,-3.234096 z m 3.28891,0 3.2341,0 0,3.234096 -3.2341,0 0,-3.234096 z m 3.28892,0 3.2341,0 0,3.234096 -3.2341,0 0,-3.234096 z m 3.28891,0 3.23411,0 0,3.234096 -3.23411,0 0,-3.234096 z m 3.28891,0 3.2341,0 0,3.234096 -3.2341,0 0,-3.234096 z m 3.28893,0 3.23409,0 0,3.234096 -3.23409,0 0,-3.234096 z m 3.2889,0 3.2341,0 0,3.234096 -3.2341,0 0,-3.234096 z m 3.28891,0 3.2341,0 0,3.234096 -3.2341,0 0,-3.234096 z m 3.28893,0 3.23408,0 0,3.234096 -3.23408,0 0,-3.234096 z m 3.28889,0 3.23411,0 0,3.234096 -3.23411,0 0,-3.234096 z m 3.28891,0 3.2341,0 0,3.234096 -3.2341,0 0,-3.234096 z m 3.28893,0 3.23409,0 0,3.234096 -3.23409,0 0,-3.234096 z"
         inkscape:connector-curvature="0" />
    </clipPath>
  </defs>
  <sodipodi:namedview
     pagecolor="#ffffff"
     bordercolor="#666666"
     borderopacity="1"
     objecttolerance="10"
     gridtolerance="10"
     guidetolerance="10"
     inkscape:pageopacity="0"
     inkscape:pageshadow="2"
     inkscape:window-width="1865"
     inkscape:window-height="1056"
     id="namedview2999"
     showgrid="false"
     fit-margin-top="0"
     fit-margin-left="0"
     fit-margin-right="0"
     fit-margin-bottom="0"
     inkscape:zoom="2.7846077"
     inkscape:cx="80.829651"
     inkscape:cy="59.745607"
     inkscape:window-x="55"
     inkscape:window-y="24"
     inkscape:window-maximized="1"
     inkscape:current-layer="svg2985"
     showguides="true"
     inkscape:guide-bbox="true" />
  <path
     style="fill:#000000;fill-opacity:1;fill-rule:nonzero;stroke:none"
     d="m 106.20572,3.2421414 c -57.912003,0 -105.1250022,47.2130096 -105.1250022,105.1250086 0,57.91202 47.2129992,105.15001 105.1250022,105.15001 57.91201,0 105.15,-47.23799 105.15,-105.15001 0,-57.911999 -47.23799,-105.1250086 -105.15,-105.1250086 z m 0,5.6750006 c 54.78101,0 99.475,44.668008 99.475,99.450008 0,54.78202 -44.69399,99.47501 -99.475,99.47501 -54.782003,0 -99.4500022,-44.69299 -99.4500022,-99.47501 0,-54.782 44.6679992,-99.450008 99.4500022,-99.450008 z m 0,7.500001 c -50.657003,0 -91.950002,41.293008 -91.950002,91.950007 0,50.65601 41.292999,91.97501 91.950002,91.97501 12.533,0 24.49599,-2.527 35.4,-7.1 l 0,-46.2 -86.325002,0 0,-11.60001 c -0.52496,-1.04992 97.100002,-106.550006 97.100002,-106.550006 -13.58299,-7.929998 -29.366,-12.475001 -46.175,-12.475001 z m 58.65,21.200002 0,87.075005 31.875,0 c 0.956,-5.294 1.45,-10.763 1.45,-16.325 0,-28.398996 -12.988,-53.858009 -33.325,-70.750005 z m -23.25,22.775002 -59.512506,64.300003 59.512506,0 0,-64.300003 z m 23.25,86.650013 0,32.075 c 10.455,-8.683 18.971,-19.627 24.775,-32.075 l -24.775,0 z m -97.718753,5.74062 c 3.354168,0 5.510417,0.82813 6.468751,2.48438 0.572917,1 0.901041,2.41145 0.984375,4.23437 0.03125,0.86459 0.04687,1.81771 0.04687,2.85938 0,1.04166 -0.03646,2.01562 -0.109374,2.92187 -0.0625,0.89583 -0.192709,1.70313 -0.390626,2.42187 -0.197916,0.71876 -0.473957,1.34896 -0.828124,1.89064 -0.354167,0.53124 -0.822917,0.97916 -1.40625,1.34374 -1.145834,0.70834 -2.817709,1.0625 -5.015626,1.0625 -3.291666,0 -5.453124,-0.8125 -6.484374,-2.4375 -0.635417,-1.01042 -1.005209,-2.42708 -1.109375,-4.25 -0.05208,-0.875 -0.07813,-1.83333 -0.07813,-2.875 0,-2.36458 0.119791,-4.01563 0.359375,-4.95312 0.239583,-0.93751 0.53125,-1.67709 0.875,-2.21875 0.354167,-0.55208 0.828125,-1.01042 1.421875,-1.375 1.1875,-0.73959 2.942708,-1.10938 5.265624,-1.10938 z m 23.124999,0 c 0.927088,0 1.744792,0.10938 2.453128,0.32813 0.708336,0.20833 1.270832,0.54687 1.687496,1.01562 0.760416,0.84375 1.140632,2.38021 1.140624,4.60938 l 0,12.95312 -2.624992,0 0,-12.46874 c 0,-1.50001 -0.14584,-2.46355 -0.437504,-2.89063 -0.291664,-0.4375 -0.640624,-0.72917 -1.046872,-0.87501 -0.39584,-0.15625 -0.916672,-0.23437 -1.562504,-0.23437 -2.031248,0 -4.09896,0.59896 -6.20312,1.79688 l 0,14.67187 -2.593754,0 0,-18.59375 2.28125,0 0.25,1.92188 c 1.135416,-0.92708 2.546872,-1.58855 4.234376,-1.98438 0.687496,-0.16666 1.494792,-0.25 2.421872,-0.25 z m 38.546884,0 c 2.82291,0 4.75,0.69792 5.78124,2.09375 0.5,0.67708 0.82813,1.5 0.98438,2.46875 0.16666,0.95833 0.25,1.87501 0.25,2.75001 0,1.36458 -0.0313,2.42187 -0.0937,3.17187 -1.46875,0.0625 -2.78646,0.0937 -3.95313,0.0937 l -2.51562,0 c -2.625,0 -4.64584,-0.11458 -6.0625,-0.34375 0,2.39583 0.30208,4.06771 0.90625,5.01562 0.73958,1.15625 2.21354,1.73438 4.42187,1.73438 2.20834,0 4.32292,-0.43229 6.34375,-1.29687 l 0.76563,2.23436 c -2.15625,0.86459 -4.53646,1.29688 -7.14063,1.29688 -1.51041,0 -2.79166,-0.15624 -3.84375,-0.46875 -1.67708,-0.47917 -2.79166,-1.46875 -3.34374,-2.96875 -0.51042,-1.40625 -0.76564,-3.48958 -0.76564,-6.25 l 0,-0.79687 c 0,-3.30208 0.68751,-5.6198 2.06251,-6.95313 1.23958,-1.1875 3.30729,-1.78125 6.20313,-1.78125 z m -20.98595,0.003 c 0.59701,-0.003 1.24375,0.0281 1.93907,0.0906 1.89583,0.17708 3.40625,0.50521 4.53124,0.98438 l -0.73436,2.35937 c -1.25,-0.53125 -2.75,-0.91667 -4.5,-1.15625 -0.54168,-0.0729 -1.05209,-0.10938 -1.53126,-0.10938 -0.46874,0 -0.89583,0.0365 -1.28125,0.10938 -0.38541,0.0729 -0.70833,0.20833 -0.96875,0.40625 -0.5,0.40625 -0.76042,1.16146 -0.78125,2.26563 -0.0312,1.30208 0.33334,2.13021 1.09375,2.48438 0.72917,0.34374 1.59376,0.58332 2.59376,0.71874 1,0.125 1.8177,0.23958 2.45312,0.34375 0.63541,0.0937 1.21354,0.22396 1.73437,0.39063 0.52083,0.16667 0.96875,0.43229 1.34375,0.79688 0.78125,0.73958 1.16146,2.02604 1.14063,3.85937 -0.0521,3.19791 -1.38542,5.02083 -4,5.46875 -0.79167,0.13541 -1.58334,0.20312 -2.375,0.20312 -0.79167,0 -1.52083,-0.0521 -2.18751,-0.15624 -0.65624,-0.0938 -1.28645,-0.22917 -1.89062,-0.40626 -1.14583,-0.32291 -2.18229,-0.75 -3.10938,-1.28125 l 1.12501,-2.15625 c 2.14583,1.19792 4.30208,1.79688 6.46875,1.79688 1.80208,0 2.85937,-0.64063 3.17188,-1.92188 0.10416,-0.4375 0.15624,-0.96875 0.15624,-1.59375 0,-0.63541 -0.0729,-1.125 -0.21875,-1.46875 -0.14583,-0.35416 -0.39062,-0.61458 -0.73437,-0.78125 -0.34375,-0.17708 -0.80208,-0.30729 -1.375,-0.39062 -0.5625,-0.0833 -1.28125,-0.19792 -2.15625,-0.34375 -0.875,-0.15625 -1.67708,-0.32812 -2.40625,-0.51563 -0.72917,-0.18749 -1.34896,-0.45833 -1.85938,-0.81249 -1.08333,-0.76042 -1.60416,-2.04168 -1.5625,-3.84376 l 0,-0.39062 c 0,-1.89583 0.625,-3.24479 1.875,-4.04688 0.90626,-0.59375 2.2543,-0.89531 4.04531,-0.90312 z m -40.717182,2.23125 c -2.28125,0 -3.765625,0.5625 -4.453125,1.68749 -0.34375,0.57292 -0.5625,1.30209 -0.65625,2.18751 -0.09375,0.88541 -0.140625,1.84896 -0.140625,2.89062 0,1.04167 0.01042,1.92709 0.03125,2.65625 0.03125,0.71875 0.09896,1.36979 0.203126,1.95313 0.114583,0.57292 0.276042,1.07292 0.484375,1.5 0.21875,0.42708 0.515625,0.78125 0.890625,1.06249 0.375,0.28126 0.84375,0.4948 1.40625,0.64064 0.572916,0.13541 1.348958,0.20312 2.328125,0.20312 0.989583,0 1.817708,-0.14063 2.484375,-0.42188 0.677083,-0.28124 1.182292,-0.72916 1.515625,-1.34375 0.34375,-0.625 0.557291,-1.43229 0.640625,-2.42187 0.09375,-0.98958 0.140625,-2.14062 0.140625,-3.45313 0,-1.31249 -0.04167,-2.40625 -0.125,-3.28125 -0.07292,-0.875 -0.265625,-1.59896 -0.578125,-2.17188 -0.625,-1.12499 -2.015626,-1.68749 -4.171875,-1.68749 z m 61.453132,0 c -2.08334,0 -3.50521,0.45312 -4.26564,1.35937 -0.72916,0.86459 -1.09374,2.46875 -1.09374,4.8125 l 9.98438,0 0,-1.5 c 0,-1.63542 -0.31772,-2.80208 -0.95313,-3.5 -0.70834,-0.78125 -1.93229,-1.17187 -3.67187,-1.17187 z"
     id="path2994"
     inkscape:connector-curvature="0" />
</svg>
