<?xml version="1.0" encoding="UTF-8" standalone="no"?>
<!-- Created with Inkscape (http://www.inkscape.org/) -->

<svg
   xmlns:dc="http://purl.org/dc/elements/1.1/"
   xmlns:cc="http://creativecommons.org/ns#"
   xmlns:rdf="http://www.w3.org/1999/02/22-rdf-syntax-ns#"
   xmlns:svg="http://www.w3.org/2000/svg"
   xmlns="http://www.w3.org/2000/svg"
   version="1.1"
   width="646.20483"
   height="262.84375"
   viewBox="0 0 516.96389 210.27499"
   id="svg2985"
   style="fill-rule:evenodd">
  <metadata
     id="metadata3003">
    <rdf:RDF>
      <cc:Work
         rdf:about="">
        <dc:format>image/svg+xml</dc:format>
        <dc:type
           rdf:resource="http://purl.org/dc/dcmitype/StillImage" />
        <dc:title></dc:title>
      </cc:Work>
    </rdf:RDF>
  </metadata>
  <defs
     id="defs3001">
    <clipPath
       id="clipPath14507">
      <path
         d="m 205.77714,-56.116756 0,2.860673 -3.23411,0 0,-2.620855 c -0.0182,0.0033 -0.0366,0.0069 -0.0547,0.01025 l 0,2.610576 -3.2341,0 0,-1.360106 c -0.0185,0.01239 -0.0366,0.02518 -0.0547,0.03771 l 0,1.322416 -1.4115,0 c -0.0144,0.01875 -0.0304,0.03599 -0.0446,0.0548 l 1.45603,0 0,3.234099 -2.76132,0 c -0.002,0.01823 -0.007,0.03665 -0.0107,0.05481 l 2.77159,0 0,3.234091 -2.91549,0 0,0.0548 2.91549,0 0,3.234098 -2.91549,0 0,0.0548 2.91549,0 0,3.234097 -2.91549,0 0,0.0548 2.91549,0 0,3.234099 -2.91549,0 0,0.0548 2.91549,0 0,3.234097 -2.91549,0 0,0.0548 2.91549,0 0,3.234099 -2.91549,0 0,0.0548 2.91549,0 0,3.234097 -2.91549,0 0,0.0548 2.91549,0 0,3.234098 -2.91549,0 0,0.0548 2.91549,0 0,3.234093 -2.91549,0 0,0.0548 2.91549,0 0,3.234097 -2.91549,0 0,0.0548 2.91549,0 0,3.2341 -2.91549,0 0,0.0548 2.91549,0 0,3.234097 -2.91549,0 0,0.05481 2.91549,0 0,3.2340988 -2.91549,0 0,0.0548 2.91549,0 0,3.2340987 -2.91549,0 0,0.0548 2.91549,0 0,3.23410096 -2.91549,0 0,0.05482 2.91549,0 0,3.23409154 -2.91549,0 0,0.05482 2.91549,0 0,3.234098 -2.91549,0 0,0.05482 2.91549,0 0,3.234097 -2.91549,0 0,0.05482 2.91549,0 0,3.234105 -2.74419,0 c 0.002,0.01834 0.007,0.03648 0.0107,0.05482 l 2.73392,0 0,3.234098 -1.38067,0 c 0.0144,0.01833 0.0299,0.03654 0.0446,0.05482 l 1.33612,0 0,1.229919 c 0.0181,0.01227 0.0366,0.02554 0.0548,0.03775 l 0,-1.267607 3.23409,0 0,2.504367 c 0.0181,0.0032 0.0366,0.0069 0.0548,0.01025 l 0,-2.514646 3.23409,0 0,2.751038 0.0547,0 0,-2.751038 3.23411,0 0,2.751038 0.0548,0 0,-2.751038 3.23409,0 0,2.751038 0.0548,0 0,-2.751038 3.2341,0 0,2.751038 0.0548,0 0,-2.751038 3.2341,0 0,2.751038 0.0547,0 0,-2.751038 3.23411,0 0,2.751038 0.0548,0 0,-2.751038 3.23409,0 0,2.751038 0.0548,0 0,-2.751038 3.2341,0 0,2.751038 0.0548,0 0,-2.751038 3.2341,0 0,2.751038 0.0547,0 0,-2.751038 3.23411,0 0,2.751038 0.0548,0 0,-2.751038 3.2341,0 0,2.751038 0.0548,0 0,-2.751038 3.23409,0 0,2.751038 0.0548,0 0,-2.751038 3.23409,0 0,2.751038 0.0548,0 0,-2.751038 3.2341,0 0,2.751038 0.0547,0 0,-2.751038 3.2341,0 0,2.751038 0.0548,0 0,-2.751038 3.23409,0 0,2.751038 0.0548,0 0,-2.751038 3.2341,0 0,2.751038 0.0548,0 0,-2.751038 3.2341,0 0,2.751038 0.0547,0 0,-2.751038 3.23411,0 0,2.751038 0.0548,0 0,-2.751038 3.23409,0 0,2.751038 0.0548,0 0,-2.751038 3.2341,0 0,2.751038 0.0548,0 0,-2.751038 3.23409,0 0,2.751038 0.0548,0 0,-2.751038 3.23411,0 0,2.751038 0.0547,0 0,-2.751038 3.23409,0 0,2.751038 0.0548,0 0,-2.751038 3.2341,0 0,2.751038 0.0548,0 0,-2.751038 3.2341,0 0,2.751038 0.0547,0 0,-2.751038 3.23411,0 0,2.751038 0.0548,0 0,-2.751038 3.23408,0 0,2.751038 0.0547,0 0,-2.751038 3.23411,0 0,2.751038 0.0547,0 0,-2.751038 3.2341,0 0,2.751038 0.0548,0 0,-2.751038 3.2341,0 0,2.751038 0.0548,0 0,-2.751038 3.23408,0 0,2.751038 0.0548,0 0,-2.751038 3.2341,0 0,2.751038 0.0547,0 0,-2.751038 3.2341,0 0,2.751038 0.0548,0 0,-2.751038 3.23409,0 0,2.751038 0.0547,0 0,-2.751038 3.23411,0 0,2.459834 c 0.0182,-0.0037 0.0367,-0.0067 0.0548,-0.01025 l 0,-2.449554 3.23409,0 0,1.068895 c 0.0186,-0.01378 0.0365,-0.02718 0.0548,-0.04109 l 0,-1.027789 1.06547,0 c 0.0149,-0.01828 0.0299,-0.03635 0.0446,-0.05482 l -1.11001,0 0,-3.234096 2.5078,0 c 0.002,-0.01834 0.007,-0.03654 0.0107,-0.05482 l -2.51809,0 0,-3.234106 2.69623,0 0,-0.05482 -2.69623,0 0,-3.234099 2.69623,0 0,-0.05482 -2.69623,0 0,-3.234098 2.69623,0 0,-0.05482 -2.69623,0 0,-3.23409254 2.69623,0 0,-0.05482 -2.69623,0 0,-3.23409996 2.69623,0 0,-0.0548 -2.69623,0 0,-3.2340977 2.69623,0 0,-0.05481 -2.69623,0 0,-3.2340978 2.69623,0 0,-0.0548 -2.69623,0 0,-3.2341 2.69623,0 0,-0.0548 -2.69623,0 0,-3.234098 2.69623,0 0,-0.05481 -2.69623,0 0,-3.234098 2.69623,0 0,-0.0548 -2.69623,0 0,-3.234093 2.69623,0 0,-0.0548 -2.69623,0 0,-3.234098 2.69623,0 0,-0.05481 -2.69623,0 0,-3.234097 2.69623,0 0,-0.0548 -2.69623,0 0,-3.234098 2.69623,0 0,-0.05481 -2.69623,0 0,-3.234098 2.69623,0 0,-0.0548 -2.69623,0 0,-3.234099 2.69623,0 0,-0.0548 -2.69623,0 0,-3.234099 2.69623,0 0,-0.0548 -2.69623,0 0,-3.234098 2.69623,0 0,-0.0548 -2.69623,0 0,-3.234092 2.55919,0 c -0.002,-0.01829 -0.004,-0.03646 -0.007,-0.0548 l -2.55233,0 0,-3.234098 1.27446,0 c -0.0136,-0.01829 -0.0272,-0.03658 -0.041,-0.0548 l -1.23335,0 0,-1.202507 c -0.0186,-0.01359 -0.036,-0.02764 -0.0548,-0.04108 l 0,1.243625 -3.23409,0 0,-2.572894 c -0.0182,-0.0041 -0.0365,-0.0067 -0.0548,-0.01025 l 0,2.583166 -3.23411,0 0,-2.860672 -0.0547,0 0,2.860672 -3.23411,0 0,-2.860672 -0.0548,0 0,2.860672 -3.23409,0 0,-2.860672 -0.0548,0 0,2.860672 -3.23409,0 0,-2.860672 -0.0548,0 0,2.860672 -3.2341,0 0,-2.860672 -0.0548,0 0,2.860672 -3.23409,0 0,-2.860672 -0.0548,0 0,2.860672 -3.2341,0 0,-2.860672 -0.0548,0 0,2.860672 -3.23409,0 0,-2.860672 -0.0548,0 0,2.860672 -3.2341,0 0,-2.860672 -0.0547,0 0,2.860672 -3.2341,0 0,-2.860672 -0.0548,0 0,2.860672 -3.23409,0 0,-2.860672 -0.0548,0 0,2.860672 -3.2341,0 0,-2.860672 -0.0548,0 0,2.860672 -3.23409,0 0,-2.860672 -0.0548,0 0,2.860672 -3.23411,0 0,-2.860672 -0.0548,0 0,2.860672 -3.23409,0 0,-2.860672 -0.0548,0 0,2.860672 -3.23409,0 0,-2.860672 -0.0548,0 0,2.860672 -3.2341,0 0,-2.860672 -0.0547,0 0,2.860672 -3.23409,0 0,-2.860672 -0.0548,0 0,2.860672 -3.2341,0 0,-2.860672 -0.0548,0 0,2.860672 -3.2341,0 0,-2.860672 -0.0547,0 0,2.860672 -3.23411,0 0,-2.860672 -0.0548,0 0,2.860672 -3.23409,0 0,-2.860672 -0.0548,0 0,2.860672 -3.2341,0 0,-2.860672 -0.0548,0 0,2.860672 -3.23409,0 0,-2.860672 -0.0548,0 0,2.860672 -3.23411,0 0,-2.860672 -0.0547,0 0,2.860672 -3.2341,0 0,-2.860672 -0.0548,0 0,2.860672 -3.2341,0 0,-2.860672 -0.0548,0 0,2.860672 -3.23409,0 0,-2.860672 -0.0548,0 0,2.860672 -3.23409,0 0,-2.860672 -0.0548,0 0,2.860672 -3.2341,0 0,-2.860672 -0.0548,0 0,2.860672 -3.23409,0 0,-2.860672 -0.0548,0 0,2.860672 -3.23411,0 0,-2.860672 -0.0547,0 0,2.860672 -3.2341,0 0,-2.860672 -0.0548,0 0,2.860672 -3.2341,0 0,-2.860672 -0.0548,0 0,2.860672 -3.23409,0 0,-2.860672 -0.0548,0 z m -6.52301,2.915488 3.23409,0 0,3.234098 -3.23409,0 0,-3.234098 z m 3.2889,0 3.23411,0 0,3.234098 -3.23411,0 0,-3.234098 z m 3.28893,0 3.23408,0 0,3.234098 -3.23408,0 0,-3.234098 z m 3.28889,0 3.23411,0 0,3.234098 -3.23411,0 0,-3.234098 z m 3.28893,0 3.2341,0 0,3.234098 -3.2341,0 0,-3.234098 z m 3.28891,0 3.23409,0 0,3.234098 -3.23409,0 0,-3.234098 z m 3.28891,0 3.23409,0 0,3.234098 -3.23409,0 0,-3.234098 z m 3.28892,0 3.2341,0 0,3.234098 -3.2341,0 0,-3.234098 z m 3.28891,0 3.23409,0 0,3.234098 -3.23409,0 0,-3.234098 z m 3.28891,0 3.23409,0 0,3.234098 -3.23409,0 0,-3.234098 z m 3.28892,0 3.23409,0 0,3.234098 -3.23409,0 0,-3.234098 z m 3.28891,0 3.23409,0 0,3.234098 -3.23409,0 0,-3.234098 z m 3.28891,0 3.23409,0 0,3.234098 -3.23409,0 0,-3.234098 z m 3.28891,0 3.2341,0 0,3.234098 -3.2341,0 0,-3.234098 z m 3.28891,0 3.2341,0 0,3.234098 -3.2341,0 0,-3.234098 z m 3.28891,0 3.23409,0 0,3.234098 -3.23409,0 0,-3.234098 z m 3.28892,0 3.23409,0 0,3.234098 -3.23409,0 0,-3.234098 z m 3.28891,0 3.23409,0 0,3.234098 -3.23409,0 0,-3.234098 z m 3.28891,0 3.23409,0 0,3.234098 -3.23409,0 0,-3.234098 z m 3.28892,0 3.2341,0 0,3.234098 -3.2341,0 0,-3.234098 z m 3.2889,0 3.2341,0 0,3.234098 -3.2341,0 0,-3.234098 z m 3.28892,0 3.23409,0 0,3.234098 -3.23409,0 0,-3.234098 z m 3.28892,0 3.2341,0 0,3.234098 -3.2341,0 0,-3.234098 z m 3.2889,0 3.23411,0 0,3.234098 -3.23411,0 0,-3.234098 z m 3.28891,0 3.23409,0 0,3.234098 -3.23409,0 0,-3.234098 z m 3.28892,0 3.2341,0 0,3.234098 -3.2341,0 0,-3.234098 z m 3.28891,0 3.23411,0 0,3.234098 -3.23411,0 0,-3.234098 z m 3.28891,0 3.2341,0 0,3.234098 -3.2341,0 0,-3.234098 z m 3.28892,0 3.2341,0 0,3.234098 -3.2341,0 0,-3.234098 z m 3.28891,0 3.23411,0 0,3.234098 -3.23411,0 0,-3.234098 z m 3.28891,0 3.2341,0 0,3.234098 -3.2341,0 0,-3.234098 z m 3.28893,0 3.23409,0 0,3.234098 -3.23409,0 0,-3.234098 z m 3.2889,0 3.2341,0 0,3.234098 -3.2341,0 0,-3.234098 z m 3.28891,0 3.2341,0 0,3.234098 -3.2341,0 0,-3.234098 z m 3.28893,0 3.23408,0 0,3.234098 -3.23408,0 0,-3.234098 z m 3.28889,0 3.23411,0 0,3.234098 -3.23411,0 0,-3.234098 z m 3.28891,0 3.2341,0 0,3.234098 -3.2341,0 0,-3.234098 z m 3.28893,0 3.23409,0 0,3.234098 -3.23409,0 0,-3.234098 z m -121.68977,3.288913 3.23409,0 0,3.2341 -3.23409,0 0,-3.2341 z m 3.2889,0 3.23411,0 0,3.2341 -3.23411,0 0,-3.2341 z m 3.28893,0 3.23408,0 0,3.2341 -3.23408,0 0,-3.2341 z m 3.28889,0 3.23411,0 0,3.2341 -3.23411,0 0,-3.2341 z m 3.28893,0 3.2341,0 0,3.2341 -3.2341,0 0,-3.2341 z m 3.28891,0 3.23409,0 0,3.2341 -3.23409,0 0,-3.2341 z m 3.28891,0 3.23409,0 0,3.2341 -3.23409,0 0,-3.2341 z m 3.28892,0 3.2341,0 0,3.2341 -3.2341,0 0,-3.2341 z m 3.28891,0 3.23409,0 0,3.2341 -3.23409,0 0,-3.2341 z m 3.28891,0 3.23409,0 0,3.2341 -3.23409,0 0,-3.2341 z m 3.28892,0 3.23409,0 0,3.2341 -3.23409,0 0,-3.2341 z m 3.28891,0 3.23409,0 0,3.2341 -3.23409,0 0,-3.2341 z m 3.28891,0 3.23409,0 0,3.2341 -3.23409,0 0,-3.2341 z m 3.28891,0 3.2341,0 0,3.2341 -3.2341,0 0,-3.2341 z m 3.28891,0 3.2341,0 0,3.2341 -3.2341,0 0,-3.2341 z m 3.28891,0 3.23409,0 0,3.2341 -3.23409,0 0,-3.2341 z m 3.28892,0 3.23409,0 0,3.2341 -3.23409,0 0,-3.2341 z m 3.28891,0 3.23409,0 0,3.2341 -3.23409,0 0,-3.2341 z m 3.28891,0 3.23409,0 0,3.2341 -3.23409,0 0,-3.2341 z m 3.28892,0 3.2341,0 0,3.2341 -3.2341,0 0,-3.2341 z m 3.2889,0 3.2341,0 0,3.2341 -3.2341,0 0,-3.2341 z m 3.28892,0 3.23409,0 0,3.2341 -3.23409,0 0,-3.2341 z m 3.28892,0 3.2341,0 0,3.2341 -3.2341,0 0,-3.2341 z m 3.2889,0 3.23411,0 0,3.2341 -3.23411,0 0,-3.2341 z m 3.28891,0 3.23409,0 0,3.2341 -3.23409,0 0,-3.2341 z m 3.28892,0 3.2341,0 0,3.2341 -3.2341,0 0,-3.2341 z m 3.28891,0 3.23411,0 0,3.2341 -3.23411,0 0,-3.2341 z m 3.28891,0 3.2341,0 0,3.2341 -3.2341,0 0,-3.2341 z m 3.28892,0 3.2341,0 0,3.2341 -3.2341,0 0,-3.2341 z m 3.28891,0 3.23411,0 0,3.2341 -3.23411,0 0,-3.2341 z m 3.28891,0 3.2341,0 0,3.2341 -3.2341,0 0,-3.2341 z m 3.28893,0 3.23409,0 0,3.2341 -3.23409,0 0,-3.2341 z m 3.2889,0 3.2341,0 0,3.2341 -3.2341,0 0,-3.2341 z m 3.28891,0 3.2341,0 0,3.2341 -3.2341,0 0,-3.2341 z m 3.28893,0 3.23408,0 0,3.2341 -3.23408,0 0,-3.2341 z m 3.28889,0 3.23411,0 0,3.2341 -3.23411,0 0,-3.2341 z m 3.28891,0 3.2341,0 0,3.2341 -3.2341,0 0,-3.2341 z m 3.28893,0 3.23409,0 0,3.2341 -3.23409,0 0,-3.2341 z m -121.68977,3.288913 3.23409,0 0,3.234092 -3.23409,0 0,-3.234092 z m 3.2889,0 3.23411,0 0,3.234092 -3.23411,0 0,-3.234092 z m 3.28893,0 3.23408,0 0,3.234092 -3.23408,0 0,-3.234092 z m 3.28889,0 3.23411,0 0,3.234092 -3.23411,0 0,-3.234092 z m 3.28893,0 3.2341,0 0,3.234092 -3.2341,0 0,-3.234092 z m 3.28891,0 3.23409,0 0,3.234092 -3.23409,0 0,-3.234092 z m 3.28891,0 3.23409,0 0,3.234092 -3.23409,0 0,-3.234092 z m 3.28892,0 3.2341,0 0,3.234092 -3.2341,0 0,-3.234092 z m 3.28891,0 3.23409,0 0,3.234092 -3.23409,0 0,-3.234092 z m 3.28891,0 3.23409,0 0,3.234092 -3.23409,0 0,-3.234092 z m 3.28892,0 3.23409,0 0,3.234092 -3.23409,0 0,-3.234092 z m 3.28891,0 3.23409,0 0,3.234092 -3.23409,0 0,-3.234092 z m 3.28891,0 3.23409,0 0,3.234092 -3.23409,0 0,-3.234092 z m 3.28891,0 3.2341,0 0,3.234092 -3.2341,0 0,-3.234092 z m 3.28891,0 3.2341,0 0,3.234092 -3.2341,0 0,-3.234092 z m 3.28891,0 3.23409,0 0,3.234092 -3.23409,0 0,-3.234092 z m 3.28892,0 3.23409,0 0,3.234092 -3.23409,0 0,-3.234092 z m 3.28891,0 3.23409,0 0,3.234092 -3.23409,0 0,-3.234092 z m 3.28891,0 3.23409,0 0,3.234092 -3.23409,0 0,-3.234092 z m 3.28892,0 3.2341,0 0,3.234092 -3.2341,0 0,-3.234092 z m 3.2889,0 3.2341,0 0,3.234092 -3.2341,0 0,-3.234092 z m 3.28892,0 3.23409,0 0,3.234092 -3.23409,0 0,-3.234092 z m 3.28892,0 3.2341,0 0,3.234092 -3.2341,0 0,-3.234092 z m 3.2889,0 3.23411,0 0,3.234092 -3.23411,0 0,-3.234092 z m 3.28891,0 3.23409,0 0,3.234092 -3.23409,0 0,-3.234092 z m 3.28892,0 3.2341,0 0,3.234092 -3.2341,0 0,-3.234092 z m 3.28891,0 3.23411,0 0,3.234092 -3.23411,0 0,-3.234092 z m 3.28891,0 3.2341,0 0,3.234092 -3.2341,0 0,-3.234092 z m 3.28892,0 3.2341,0 0,3.234092 -3.2341,0 0,-3.234092 z m 3.28891,0 3.23411,0 0,3.234092 -3.23411,0 0,-3.234092 z m 3.28891,0 3.2341,0 0,3.234092 -3.2341,0 0,-3.234092 z m 3.28893,0 3.23409,0 0,3.234092 -3.23409,0 0,-3.234092 z m 3.2889,0 3.2341,0 0,3.234092 -3.2341,0 0,-3.234092 z m 3.28891,0 3.2341,0 0,3.234092 -3.2341,0 0,-3.234092 z m 3.28893,0 3.23408,0 0,3.234092 -3.23408,0 0,-3.234092 z m 3.28889,0 3.23411,0 0,3.234092 -3.23411,0 0,-3.234092 z m 3.28891,0 3.2341,0 0,3.234092 -3.2341,0 0,-3.234092 z m 3.28893,0 3.23409,0 0,3.234092 -3.23409,0 0,-3.234092 z m -121.68977,3.288914 3.23409,0 0,3.234091 -3.23409,0 0,-3.234091 z m 3.2889,0 3.23411,0 0,3.234091 -3.23411,0 0,-3.234091 z m 3.28893,0 3.23408,0 0,3.234091 -3.23408,0 0,-3.234091 z m 3.28889,0 3.23411,0 0,3.234091 -3.23411,0 0,-3.234091 z m 3.28893,0 3.2341,0 0,3.234091 -3.2341,0 0,-3.234091 z m 3.28891,0 3.23409,0 0,3.234091 -3.23409,0 0,-3.234091 z m 3.28891,0 3.23409,0 0,3.234091 -3.23409,0 0,-3.234091 z m 3.28892,0 3.2341,0 0,3.234091 -3.2341,0 0,-3.234091 z m 3.28891,0 3.23409,0 0,3.234091 -3.23409,0 0,-3.234091 z m 3.28891,0 3.23409,0 0,3.234091 -3.23409,0 0,-3.234091 z m 3.28892,0 3.23409,0 0,3.234091 -3.23409,0 0,-3.234091 z m 3.28891,0 3.23409,0 0,3.234091 -3.23409,0 0,-3.234091 z m 3.28891,0 3.23409,0 0,3.234091 -3.23409,0 0,-3.234091 z m 3.28891,0 3.2341,0 0,3.234091 -3.2341,0 0,-3.234091 z m 3.28891,0 3.2341,0 0,3.234091 -3.2341,0 0,-3.234091 z m 3.28891,0 3.23409,0 0,3.234091 -3.23409,0 0,-3.234091 z m 3.28892,0 3.23409,0 0,3.234091 -3.23409,0 0,-3.234091 z m 3.28891,0 3.23409,0 0,3.234091 -3.23409,0 0,-3.234091 z m 3.28891,0 3.23409,0 0,3.234091 -3.23409,0 0,-3.234091 z m 3.28892,0 3.2341,0 0,3.234091 -3.2341,0 0,-3.234091 z m 3.2889,0 3.2341,0 0,3.234091 -3.2341,0 0,-3.234091 z m 3.28892,0 3.23409,0 0,3.234091 -3.23409,0 0,-3.234091 z m 3.28892,0 3.2341,0 0,3.234091 -3.2341,0 0,-3.234091 z m 3.2889,0 3.23411,0 0,3.234091 -3.23411,0 0,-3.234091 z m 3.28891,0 3.23409,0 0,3.234091 -3.23409,0 0,-3.234091 z m 3.28892,0 3.2341,0 0,3.234091 -3.2341,0 0,-3.234091 z m 3.28891,0 3.23411,0 0,3.234091 -3.23411,0 0,-3.234091 z m 3.28891,0 3.2341,0 0,3.234091 -3.2341,0 0,-3.234091 z m 3.28892,0 3.2341,0 0,3.234091 -3.2341,0 0,-3.234091 z m 3.28891,0 3.23411,0 0,3.234091 -3.23411,0 0,-3.234091 z m 3.28891,0 3.2341,0 0,3.234091 -3.2341,0 0,-3.234091 z m 3.28893,0 3.23409,0 0,3.234091 -3.23409,0 0,-3.234091 z m 3.2889,0 3.2341,0 0,3.234091 -3.2341,0 0,-3.234091 z m 3.28891,0 3.2341,0 0,3.234091 -3.2341,0 0,-3.234091 z m 3.28893,0 3.23408,0 0,3.234091 -3.23408,0 0,-3.234091 z m 3.28889,0 3.23411,0 0,3.234091 -3.23411,0 0,-3.234091 z m 3.28891,0 3.2341,0 0,3.234091 -3.2341,0 0,-3.234091 z m 3.28893,0 3.23409,0 0,3.234091 -3.23409,0 0,-3.234091 z m -121.68977,3.288906 3.23409,0 0,3.234098 -3.23409,0 0,-3.234098 z m 3.2889,0 3.23411,0 0,3.234098 -3.23411,0 0,-3.234098 z m 3.28893,0 3.23408,0 0,3.234098 -3.23408,0 0,-3.234098 z m 3.28889,0 3.23411,0 0,3.234098 -3.23411,0 0,-3.234098 z m 3.28893,0 3.2341,0 0,3.234098 -3.2341,0 0,-3.234098 z m 3.28891,0 3.23409,0 0,3.234098 -3.23409,0 0,-3.234098 z m 3.28891,0 3.23409,0 0,3.234098 -3.23409,0 0,-3.234098 z m 3.28892,0 3.2341,0 0,3.234098 -3.2341,0 0,-3.234098 z m 3.28891,0 3.23409,0 0,3.234098 -3.23409,0 0,-3.234098 z m 3.28891,0 3.23409,0 0,3.234098 -3.23409,0 0,-3.234098 z m 3.28892,0 3.23409,0 0,3.234098 -3.23409,0 0,-3.234098 z m 3.28891,0 3.23409,0 0,3.234098 -3.23409,0 0,-3.234098 z m 3.28891,0 3.23409,0 0,3.234098 -3.23409,0 0,-3.234098 z m 3.28891,0 3.2341,0 0,3.234098 -3.2341,0 0,-3.234098 z m 3.28891,0 3.2341,0 0,3.234098 -3.2341,0 0,-3.234098 z m 3.28891,0 3.23409,0 0,3.234098 -3.23409,0 0,-3.234098 z m 3.28892,0 3.23409,0 0,3.234098 -3.23409,0 0,-3.234098 z m 3.28891,0 3.23409,0 0,3.234098 -3.23409,0 0,-3.234098 z m 3.28891,0 3.23409,0 0,3.234098 -3.23409,0 0,-3.234098 z m 3.28892,0 3.2341,0 0,3.234098 -3.2341,0 0,-3.234098 z m 3.2889,0 3.2341,0 0,3.234098 -3.2341,0 0,-3.234098 z m 3.28892,0 3.23409,0 0,3.234098 -3.23409,0 0,-3.234098 z m 3.28892,0 3.2341,0 0,3.234098 -3.2341,0 0,-3.234098 z m 3.2889,0 3.23411,0 0,3.234098 -3.23411,0 0,-3.234098 z m 3.28891,0 3.23409,0 0,3.234098 -3.23409,0 0,-3.234098 z m 3.28892,0 3.2341,0 0,3.234098 -3.2341,0 0,-3.234098 z m 3.28891,0 3.23411,0 0,3.234098 -3.23411,0 0,-3.234098 z m 3.28891,0 3.2341,0 0,3.234098 -3.2341,0 0,-3.234098 z m 3.28892,0 3.2341,0 0,3.234098 -3.2341,0 0,-3.234098 z m 3.28891,0 3.23411,0 0,3.234098 -3.23411,0 0,-3.234098 z m 3.28891,0 3.2341,0 0,3.234098 -3.2341,0 0,-3.234098 z m 3.28893,0 3.23409,0 0,3.234098 -3.23409,0 0,-3.234098 z m 3.2889,0 3.2341,0 0,3.234098 -3.2341,0 0,-3.234098 z m 3.28891,0 3.2341,0 0,3.234098 -3.2341,0 0,-3.234098 z m 3.28893,0 3.23408,0 0,3.234098 -3.23408,0 0,-3.234098 z m 3.28889,0 3.23411,0 0,3.234098 -3.23411,0 0,-3.234098 z m 3.28891,0 3.2341,0 0,3.234098 -3.2341,0 0,-3.234098 z m 3.28893,0 3.23409,0 0,3.234098 -3.23409,0 0,-3.234098 z m -121.68977,3.288913 3.23409,0 0,3.234099 -3.23409,0 0,-3.234099 z m 3.2889,0 3.23411,0 0,3.234099 -3.23411,0 0,-3.234099 z m 3.28893,0 3.23408,0 0,3.234099 -3.23408,0 0,-3.234099 z m 3.28889,0 3.23411,0 0,3.234099 -3.23411,0 0,-3.234099 z m 3.28893,0 3.2341,0 0,3.234099 -3.2341,0 0,-3.234099 z m 3.28891,0 3.23409,0 0,3.234099 -3.23409,0 0,-3.234099 z m 3.28891,0 3.23409,0 0,3.234099 -3.23409,0 0,-3.234099 z m 3.28892,0 3.2341,0 0,3.234099 -3.2341,0 0,-3.234099 z m 3.28891,0 3.23409,0 0,3.234099 -3.23409,0 0,-3.234099 z m 3.28891,0 3.23409,0 0,3.234099 -3.23409,0 0,-3.234099 z m 3.28892,0 3.23409,0 0,3.234099 -3.23409,0 0,-3.234099 z m 3.28891,0 3.23409,0 0,3.234099 -3.23409,0 0,-3.234099 z m 3.28891,0 3.23409,0 0,3.234099 -3.23409,0 0,-3.234099 z m 3.28891,0 3.2341,0 0,3.234099 -3.2341,0 0,-3.234099 z m 3.28891,0 3.2341,0 0,3.234099 -3.2341,0 0,-3.234099 z m 3.28891,0 3.23409,0 0,3.234099 -3.23409,0 0,-3.234099 z m 3.28892,0 3.23409,0 0,3.234099 -3.23409,0 0,-3.234099 z m 3.28891,0 3.23409,0 0,3.234099 -3.23409,0 0,-3.234099 z m 3.28891,0 3.23409,0 0,3.234099 -3.23409,0 0,-3.234099 z m 3.28892,0 3.2341,0 0,3.234099 -3.2341,0 0,-3.234099 z m 3.2889,0 3.2341,0 0,3.234099 -3.2341,0 0,-3.234099 z m 3.28892,0 3.23409,0 0,3.234099 -3.23409,0 0,-3.234099 z m 3.28892,0 3.2341,0 0,3.234099 -3.2341,0 0,-3.234099 z m 3.2889,0 3.23411,0 0,3.234099 -3.23411,0 0,-3.234099 z m 3.28891,0 3.23409,0 0,3.234099 -3.23409,0 0,-3.234099 z m 3.28892,0 3.2341,0 0,3.234099 -3.2341,0 0,-3.234099 z m 3.28891,0 3.23411,0 0,3.234099 -3.23411,0 0,-3.234099 z m 3.28891,0 3.2341,0 0,3.234099 -3.2341,0 0,-3.234099 z m 3.28892,0 3.2341,0 0,3.234099 -3.2341,0 0,-3.234099 z m 3.28891,0 3.23411,0 0,3.234099 -3.23411,0 0,-3.234099 z m 3.28891,0 3.2341,0 0,3.234099 -3.2341,0 0,-3.234099 z m 3.28893,0 3.23409,0 0,3.234099 -3.23409,0 0,-3.234099 z m 3.2889,0 3.2341,0 0,3.234099 -3.2341,0 0,-3.234099 z m 3.28891,0 3.2341,0 0,3.234099 -3.2341,0 0,-3.234099 z m 3.28893,0 3.23408,0 0,3.234099 -3.23408,0 0,-3.234099 z m 3.28889,0 3.23411,0 0,3.234099 -3.23411,0 0,-3.234099 z m 3.28891,0 3.2341,0 0,3.234099 -3.2341,0 0,-3.234099 z m 3.28893,0 3.23409,0 0,3.234099 -3.23409,0 0,-3.234099 z m -121.68977,3.288914 3.23409,0 0,3.234098 -3.23409,0 0,-3.234098 z m 3.2889,0 3.23411,0 0,3.234098 -3.23411,0 0,-3.234098 z m 3.28893,0 3.23408,0 0,3.234098 -3.23408,0 0,-3.234098 z m 3.28889,0 3.23411,0 0,3.234098 -3.23411,0 0,-3.234098 z m 3.28893,0 3.2341,0 0,3.234098 -3.2341,0 0,-3.234098 z m 3.28891,0 3.23409,0 0,3.234098 -3.23409,0 0,-3.234098 z m 3.28891,0 3.23409,0 0,3.234098 -3.23409,0 0,-3.234098 z m 3.28892,0 3.2341,0 0,3.234098 -3.2341,0 0,-3.234098 z m 3.28891,0 3.23409,0 0,3.234098 -3.23409,0 0,-3.234098 z m 3.28891,0 3.23409,0 0,3.234098 -3.23409,0 0,-3.234098 z m 3.28892,0 3.23409,0 0,3.234098 -3.23409,0 0,-3.234098 z m 3.28891,0 3.23409,0 0,3.234098 -3.23409,0 0,-3.234098 z m 3.28891,0 3.23409,0 0,3.234098 -3.23409,0 0,-3.234098 z m 3.28891,0 3.2341,0 0,3.234098 -3.2341,0 0,-3.234098 z m 3.28891,0 3.2341,0 0,3.234098 -3.2341,0 0,-3.234098 z m 3.28891,0 3.23409,0 0,3.234098 -3.23409,0 0,-3.234098 z m 3.28892,0 3.23409,0 0,3.234098 -3.23409,0 0,-3.234098 z m 3.28891,0 3.23409,0 0,3.234098 -3.23409,0 0,-3.234098 z m 3.28891,0 3.23409,0 0,3.234098 -3.23409,0 0,-3.234098 z m 3.28892,0 3.2341,0 0,3.234098 -3.2341,0 0,-3.234098 z m 3.2889,0 3.2341,0 0,3.234098 -3.2341,0 0,-3.234098 z m 3.28892,0 3.23409,0 0,3.234098 -3.23409,0 0,-3.234098 z m 3.28892,0 3.2341,0 0,3.234098 -3.2341,0 0,-3.234098 z m 3.2889,0 3.23411,0 0,3.234098 -3.23411,0 0,-3.234098 z m 3.28891,0 3.23409,0 0,3.234098 -3.23409,0 0,-3.234098 z m 3.28892,0 3.2341,0 0,3.234098 -3.2341,0 0,-3.234098 z m 3.28891,0 3.23411,0 0,3.234098 -3.23411,0 0,-3.234098 z m 3.28891,0 3.2341,0 0,3.234098 -3.2341,0 0,-3.234098 z m 3.28892,0 3.2341,0 0,3.234098 -3.2341,0 0,-3.234098 z m 3.28891,0 3.23411,0 0,3.234098 -3.23411,0 0,-3.234098 z m 3.28891,0 3.2341,0 0,3.234098 -3.2341,0 0,-3.234098 z m 3.28893,0 3.23409,0 0,3.234098 -3.23409,0 0,-3.234098 z m 3.2889,0 3.2341,0 0,3.234098 -3.2341,0 0,-3.234098 z m 3.28891,0 3.2341,0 0,3.234098 -3.2341,0 0,-3.234098 z m 3.28893,0 3.23408,0 0,3.234098 -3.23408,0 0,-3.234098 z m 3.28889,0 3.23411,0 0,3.234098 -3.23411,0 0,-3.234098 z m 3.28891,0 3.2341,0 0,3.234098 -3.2341,0 0,-3.234098 z m 3.28893,0 3.23409,0 0,3.234098 -3.23409,0 0,-3.234098 z m -121.68977,3.288912 3.23409,0 0,3.234098 -3.23409,0 0,-3.234098 z m 3.2889,0 3.23411,0 0,3.234098 -3.23411,0 0,-3.234098 z m 3.28893,0 3.23408,0 0,3.234098 -3.23408,0 0,-3.234098 z m 3.28889,0 3.23411,0 0,3.234098 -3.23411,0 0,-3.234098 z m 3.28893,0 3.2341,0 0,3.234098 -3.2341,0 0,-3.234098 z m 3.28891,0 3.23409,0 0,3.234098 -3.23409,0 0,-3.234098 z m 3.28891,0 3.23409,0 0,3.234098 -3.23409,0 0,-3.234098 z m 3.28892,0 3.2341,0 0,3.234098 -3.2341,0 0,-3.234098 z m 3.28891,0 3.23409,0 0,3.234098 -3.23409,0 0,-3.234098 z m 3.28891,0 3.23409,0 0,3.234098 -3.23409,0 0,-3.234098 z m 3.28892,0 3.23409,0 0,3.234098 -3.23409,0 0,-3.234098 z m 3.28891,0 3.23409,0 0,3.234098 -3.23409,0 0,-3.234098 z m 3.28891,0 3.23409,0 0,3.234098 -3.23409,0 0,-3.234098 z m 3.28891,0 3.2341,0 0,3.234098 -3.2341,0 0,-3.234098 z m 3.28891,0 3.2341,0 0,3.234098 -3.2341,0 0,-3.234098 z m 3.28891,0 3.23409,0 0,3.234098 -3.23409,0 0,-3.234098 z m 3.28892,0 3.23409,0 0,3.234098 -3.23409,0 0,-3.234098 z m 3.28891,0 3.23409,0 0,3.234098 -3.23409,0 0,-3.234098 z m 3.28891,0 3.23409,0 0,3.234098 -3.23409,0 0,-3.234098 z m 3.28892,0 3.2341,0 0,3.234098 -3.2341,0 0,-3.234098 z m 3.2889,0 3.2341,0 0,3.234098 -3.2341,0 0,-3.234098 z m 3.28892,0 3.23409,0 0,3.234098 -3.23409,0 0,-3.234098 z m 3.28892,0 3.2341,0 0,3.234098 -3.2341,0 0,-3.234098 z m 3.2889,0 3.23411,0 0,3.234098 -3.23411,0 0,-3.234098 z m 3.28891,0 3.23409,0 0,3.234098 -3.23409,0 0,-3.234098 z m 3.28892,0 3.2341,0 0,3.234098 -3.2341,0 0,-3.234098 z m 3.28891,0 3.23411,0 0,3.234098 -3.23411,0 0,-3.234098 z m 3.28891,0 3.2341,0 0,3.234098 -3.2341,0 0,-3.234098 z m 3.28892,0 3.2341,0 0,3.234098 -3.2341,0 0,-3.234098 z m 3.28891,0 3.23411,0 0,3.234098 -3.23411,0 0,-3.234098 z m 3.28891,0 3.2341,0 0,3.234098 -3.2341,0 0,-3.234098 z m 3.28893,0 3.23409,0 0,3.234098 -3.23409,0 0,-3.234098 z m 3.2889,0 3.2341,0 0,3.234098 -3.2341,0 0,-3.234098 z m 3.28891,0 3.2341,0 0,3.234098 -3.2341,0 0,-3.234098 z m 3.28893,0 3.23408,0 0,3.234098 -3.23408,0 0,-3.234098 z m 3.28889,0 3.23411,0 0,3.234098 -3.23411,0 0,-3.234098 z m 3.28891,0 3.2341,0 0,3.234098 -3.2341,0 0,-3.234098 z m 3.28893,0 3.23409,0 0,3.234098 -3.23409,0 0,-3.234098 z m -121.68977,3.288915 3.23409,0 0,3.234097 -3.23409,0 0,-3.234097 z m 3.2889,0 3.23411,0 0,3.234097 -3.23411,0 0,-3.234097 z m 3.28893,0 3.23408,0 0,3.234097 -3.23408,0 0,-3.234097 z m 3.28889,0 3.23411,0 0,3.234097 -3.23411,0 0,-3.234097 z m 3.28893,0 3.2341,0 0,3.234097 -3.2341,0 0,-3.234097 z m 3.28891,0 3.23409,0 0,3.234097 -3.23409,0 0,-3.234097 z m 3.28891,0 3.23409,0 0,3.234097 -3.23409,0 0,-3.234097 z m 3.28892,0 3.2341,0 0,3.234097 -3.2341,0 0,-3.234097 z m 3.28891,0 3.23409,0 0,3.234097 -3.23409,0 0,-3.234097 z m 3.28891,0 3.23409,0 0,3.234097 -3.23409,0 0,-3.234097 z m 3.28892,0 3.23409,0 0,3.234097 -3.23409,0 0,-3.234097 z m 3.28891,0 3.23409,0 0,3.234097 -3.23409,0 0,-3.234097 z m 3.28891,0 3.23409,0 0,3.234097 -3.23409,0 0,-3.234097 z m 3.28891,0 3.2341,0 0,3.234097 -3.2341,0 0,-3.234097 z m 3.28891,0 3.2341,0 0,3.234097 -3.2341,0 0,-3.234097 z m 3.28891,0 3.23409,0 0,3.234097 -3.23409,0 0,-3.234097 z m 3.28892,0 3.23409,0 0,3.234097 -3.23409,0 0,-3.234097 z m 3.28891,0 3.23409,0 0,3.234097 -3.23409,0 0,-3.234097 z m 3.28891,0 3.23409,0 0,3.234097 -3.23409,0 0,-3.234097 z m 3.28892,0 3.2341,0 0,3.234097 -3.2341,0 0,-3.234097 z m 3.2889,0 3.2341,0 0,3.234097 -3.2341,0 0,-3.234097 z m 3.28892,0 3.23409,0 0,3.234097 -3.23409,0 0,-3.234097 z m 3.28892,0 3.2341,0 0,3.234097 -3.2341,0 0,-3.234097 z m 3.2889,0 3.23411,0 0,3.234097 -3.23411,0 0,-3.234097 z m 3.28891,0 3.23409,0 0,3.234097 -3.23409,0 0,-3.234097 z m 3.28892,0 3.2341,0 0,3.234097 -3.2341,0 0,-3.234097 z m 3.28891,0 3.23411,0 0,3.234097 -3.23411,0 0,-3.234097 z m 3.28891,0 3.2341,0 0,3.234097 -3.2341,0 0,-3.234097 z m 3.28892,0 3.2341,0 0,3.234097 -3.2341,0 0,-3.234097 z m 3.28891,0 3.23411,0 0,3.234097 -3.23411,0 0,-3.234097 z m 3.28891,0 3.2341,0 0,3.234097 -3.2341,0 0,-3.234097 z m 3.28893,0 3.23409,0 0,3.234097 -3.23409,0 0,-3.234097 z m 3.2889,0 3.2341,0 0,3.234097 -3.2341,0 0,-3.234097 z m 3.28891,0 3.2341,0 0,3.234097 -3.2341,0 0,-3.234097 z m 3.28893,0 3.23408,0 0,3.234097 -3.23408,0 0,-3.234097 z m 3.28889,0 3.23411,0 0,3.234097 -3.23411,0 0,-3.234097 z m 3.28891,0 3.2341,0 0,3.234097 -3.2341,0 0,-3.234097 z m 3.28893,0 3.23409,0 0,3.234097 -3.23409,0 0,-3.234097 z m -121.68977,3.288912 3.23409,0 0,3.234098 -3.23409,0 0,-3.234098 z m 3.2889,0 3.23411,0 0,3.234098 -3.23411,0 0,-3.234098 z m 3.28893,0 3.23408,0 0,3.234098 -3.23408,0 0,-3.234098 z m 3.28889,0 3.23411,0 0,3.234098 -3.23411,0 0,-3.234098 z m 3.28893,0 3.2341,0 0,3.234098 -3.2341,0 0,-3.234098 z m 3.28891,0 3.23409,0 0,3.234098 -3.23409,0 0,-3.234098 z m 3.28891,0 3.23409,0 0,3.234098 -3.23409,0 0,-3.234098 z m 3.28892,0 3.2341,0 0,3.234098 -3.2341,0 0,-3.234098 z m 3.28891,0 3.23409,0 0,3.234098 -3.23409,0 0,-3.234098 z m 3.28891,0 3.23409,0 0,3.234098 -3.23409,0 0,-3.234098 z m 3.28892,0 3.23409,0 0,3.234098 -3.23409,0 0,-3.234098 z m 3.28891,0 3.23409,0 0,3.234098 -3.23409,0 0,-3.234098 z m 3.28891,0 3.23409,0 0,3.234098 -3.23409,0 0,-3.234098 z m 3.28891,0 3.2341,0 0,3.234098 -3.2341,0 0,-3.234098 z m 3.28891,0 3.2341,0 0,3.234098 -3.2341,0 0,-3.234098 z m 3.28891,0 3.23409,0 0,3.234098 -3.23409,0 0,-3.234098 z m 3.28892,0 3.23409,0 0,3.234098 -3.23409,0 0,-3.234098 z m 3.28891,0 3.23409,0 0,3.234098 -3.23409,0 0,-3.234098 z m 3.28891,0 3.23409,0 0,3.234098 -3.23409,0 0,-3.234098 z m 3.28892,0 3.2341,0 0,3.234098 -3.2341,0 0,-3.234098 z m 3.2889,0 3.2341,0 0,3.234098 -3.2341,0 0,-3.234098 z m 3.28892,0 3.23409,0 0,3.234098 -3.23409,0 0,-3.234098 z m 3.28892,0 3.2341,0 0,3.234098 -3.2341,0 0,-3.234098 z m 3.2889,0 3.23411,0 0,3.234098 -3.23411,0 0,-3.234098 z m 3.28891,0 3.23409,0 0,3.234098 -3.23409,0 0,-3.234098 z m 3.28892,0 3.2341,0 0,3.234098 -3.2341,0 0,-3.234098 z m 3.28891,0 3.23411,0 0,3.234098 -3.23411,0 0,-3.234098 z m 3.28891,0 3.2341,0 0,3.234098 -3.2341,0 0,-3.234098 z m 3.28892,0 3.2341,0 0,3.234098 -3.2341,0 0,-3.234098 z m 3.28891,0 3.23411,0 0,3.234098 -3.23411,0 0,-3.234098 z m 3.28891,0 3.2341,0 0,3.234098 -3.2341,0 0,-3.234098 z m 3.28893,0 3.23409,0 0,3.234098 -3.23409,0 0,-3.234098 z m 3.2889,0 3.2341,0 0,3.234098 -3.2341,0 0,-3.234098 z m 3.28891,0 3.2341,0 0,3.234098 -3.2341,0 0,-3.234098 z m 3.28893,0 3.23408,0 0,3.234098 -3.23408,0 0,-3.234098 z m 3.28889,0 3.23411,0 0,3.234098 -3.23411,0 0,-3.234098 z m 3.28891,0 3.2341,0 0,3.234098 -3.2341,0 0,-3.234098 z m 3.28893,0 3.23409,0 0,3.234098 -3.23409,0 0,-3.234098 z m -121.68977,3.288913 3.23409,0 0,3.234099 -3.23409,0 0,-3.234099 z m 3.2889,0 3.23411,0 0,3.234099 -3.23411,0 0,-3.234099 z m 3.28893,0 3.23408,0 0,3.234099 -3.23408,0 0,-3.234099 z m 3.28889,0 3.23411,0 0,3.234099 -3.23411,0 0,-3.234099 z m 3.28893,0 3.2341,0 0,3.234099 -3.2341,0 0,-3.234099 z m 3.28891,0 3.23409,0 0,3.234099 -3.23409,0 0,-3.234099 z m 3.28891,0 3.23409,0 0,3.234099 -3.23409,0 0,-3.234099 z m 3.28892,0 3.2341,0 0,3.234099 -3.2341,0 0,-3.234099 z m 3.28891,0 3.23409,0 0,3.234099 -3.23409,0 0,-3.234099 z m 3.28891,0 3.23409,0 0,3.234099 -3.23409,0 0,-3.234099 z m 3.28892,0 3.23409,0 0,3.234099 -3.23409,0 0,-3.234099 z m 3.28891,0 3.23409,0 0,3.234099 -3.23409,0 0,-3.234099 z m 3.28891,0 3.23409,0 0,3.234099 -3.23409,0 0,-3.234099 z m 3.28891,0 3.2341,0 0,3.234099 -3.2341,0 0,-3.234099 z m 3.28891,0 3.2341,0 0,3.234099 -3.2341,0 0,-3.234099 z m 3.28891,0 3.23409,0 0,3.234099 -3.23409,0 0,-3.234099 z m 3.28892,0 3.23409,0 0,3.234099 -3.23409,0 0,-3.234099 z m 3.28891,0 3.23409,0 0,3.234099 -3.23409,0 0,-3.234099 z m 3.28891,0 3.23409,0 0,3.234099 -3.23409,0 0,-3.234099 z m 3.28892,0 3.2341,0 0,3.234099 -3.2341,0 0,-3.234099 z m 3.2889,0 3.2341,0 0,3.234099 -3.2341,0 0,-3.234099 z m 3.28892,0 3.23409,0 0,3.234099 -3.23409,0 0,-3.234099 z m 3.28892,0 3.2341,0 0,3.234099 -3.2341,0 0,-3.234099 z m 3.2889,0 3.23411,0 0,3.234099 -3.23411,0 0,-3.234099 z m 3.28891,0 3.23409,0 0,3.234099 -3.23409,0 0,-3.234099 z m 3.28892,0 3.2341,0 0,3.234099 -3.2341,0 0,-3.234099 z m 3.28891,0 3.23411,0 0,3.234099 -3.23411,0 0,-3.234099 z m 3.28891,0 3.2341,0 0,3.234099 -3.2341,0 0,-3.234099 z m 3.28892,0 3.2341,0 0,3.234099 -3.2341,0 0,-3.234099 z m 3.28891,0 3.23411,0 0,3.234099 -3.23411,0 0,-3.234099 z m 3.28891,0 3.2341,0 0,3.234099 -3.2341,0 0,-3.234099 z m 3.28893,0 3.23409,0 0,3.234099 -3.23409,0 0,-3.234099 z m 3.2889,0 3.2341,0 0,3.234099 -3.2341,0 0,-3.234099 z m 3.28891,0 3.2341,0 0,3.234099 -3.2341,0 0,-3.234099 z m 3.28893,0 3.23408,0 0,3.234099 -3.23408,0 0,-3.234099 z m 3.28889,0 3.23411,0 0,3.234099 -3.23411,0 0,-3.234099 z m 3.28891,0 3.2341,0 0,3.234099 -3.2341,0 0,-3.234099 z m 3.28893,0 3.23409,0 0,3.234099 -3.23409,0 0,-3.234099 z m -121.68977,3.288914 3.23409,0 0,3.234098 -3.23409,0 0,-3.234098 z m 3.2889,0 3.23411,0 0,3.234098 -3.23411,0 0,-3.234098 z m 3.28893,0 3.23408,0 0,3.234098 -3.23408,0 0,-3.234098 z m 3.28889,0 3.23411,0 0,3.234098 -3.23411,0 0,-3.234098 z m 3.28893,0 3.2341,0 0,3.234098 -3.2341,0 0,-3.234098 z m 3.28891,0 3.23409,0 0,3.234098 -3.23409,0 0,-3.234098 z m 3.28891,0 3.23409,0 0,3.234098 -3.23409,0 0,-3.234098 z m 3.28892,0 3.2341,0 0,3.234098 -3.2341,0 0,-3.234098 z m 3.28891,0 3.23409,0 0,3.234098 -3.23409,0 0,-3.234098 z m 3.28891,0 3.23409,0 0,3.234098 -3.23409,0 0,-3.234098 z m 3.28892,0 3.23409,0 0,3.234098 -3.23409,0 0,-3.234098 z m 3.28891,0 3.23409,0 0,3.234098 -3.23409,0 0,-3.234098 z m 3.28891,0 3.23409,0 0,3.234098 -3.23409,0 0,-3.234098 z m 3.28891,0 3.2341,0 0,3.234098 -3.2341,0 0,-3.234098 z m 3.28891,0 3.2341,0 0,3.234098 -3.2341,0 0,-3.234098 z m 3.28891,0 3.23409,0 0,3.234098 -3.23409,0 0,-3.234098 z m 3.28892,0 3.23409,0 0,3.234098 -3.23409,0 0,-3.234098 z m 3.28891,0 3.23409,0 0,3.234098 -3.23409,0 0,-3.234098 z m 3.28891,0 3.23409,0 0,3.234098 -3.23409,0 0,-3.234098 z m 3.28892,0 3.2341,0 0,3.234098 -3.2341,0 0,-3.234098 z m 3.2889,0 3.2341,0 0,3.234098 -3.2341,0 0,-3.234098 z m 3.28892,0 3.23409,0 0,3.234098 -3.23409,0 0,-3.234098 z m 3.28892,0 3.2341,0 0,3.234098 -3.2341,0 0,-3.234098 z m 3.2889,0 3.23411,0 0,3.234098 -3.23411,0 0,-3.234098 z m 3.28891,0 3.23409,0 0,3.234098 -3.23409,0 0,-3.234098 z m 3.28892,0 3.2341,0 0,3.234098 -3.2341,0 0,-3.234098 z m 3.28891,0 3.23411,0 0,3.234098 -3.23411,0 0,-3.234098 z m 3.28891,0 3.2341,0 0,3.234098 -3.2341,0 0,-3.234098 z m 3.28892,0 3.2341,0 0,3.234098 -3.2341,0 0,-3.234098 z m 3.28891,0 3.23411,0 0,3.234098 -3.23411,0 0,-3.234098 z m 3.28891,0 3.2341,0 0,3.234098 -3.2341,0 0,-3.234098 z m 3.28893,0 3.23409,0 0,3.234098 -3.23409,0 0,-3.234098 z m 3.2889,0 3.2341,0 0,3.234098 -3.2341,0 0,-3.234098 z m 3.28891,0 3.2341,0 0,3.234098 -3.2341,0 0,-3.234098 z m 3.28893,0 3.23408,0 0,3.234098 -3.23408,0 0,-3.234098 z m 3.28889,0 3.23411,0 0,3.234098 -3.23411,0 0,-3.234098 z m 3.28891,0 3.2341,0 0,3.234098 -3.2341,0 0,-3.234098 z m 3.28893,0 3.23409,0 0,3.234098 -3.23409,0 0,-3.234098 z m -121.68977,3.288913 3.23409,0 0,3.234098 -3.23409,0 0,-3.234098 z m 3.2889,0 3.23411,0 0,3.234098 -3.23411,0 0,-3.234098 z m 3.28893,0 3.23408,0 0,3.234098 -3.23408,0 0,-3.234098 z m 3.28889,0 3.23411,0 0,3.234098 -3.23411,0 0,-3.234098 z m 3.28893,0 3.2341,0 0,3.234098 -3.2341,0 0,-3.234098 z m 3.28891,0 3.23409,0 0,3.234098 -3.23409,0 0,-3.234098 z m 3.28891,0 3.23409,0 0,3.234098 -3.23409,0 0,-3.234098 z m 3.28892,0 3.2341,0 0,3.234098 -3.2341,0 0,-3.234098 z m 3.28891,0 3.23409,0 0,3.234098 -3.23409,0 0,-3.234098 z m 3.28891,0 3.23409,0 0,3.234098 -3.23409,0 0,-3.234098 z m 3.28892,0 3.23409,0 0,3.234098 -3.23409,0 0,-3.234098 z m 3.28891,0 3.23409,0 0,3.234098 -3.23409,0 0,-3.234098 z m 3.28891,0 3.23409,0 0,3.234098 -3.23409,0 0,-3.234098 z m 3.28891,0 3.2341,0 0,3.234098 -3.2341,0 0,-3.234098 z m 3.28891,0 3.2341,0 0,3.234098 -3.2341,0 0,-3.234098 z m 3.28891,0 3.23409,0 0,3.234098 -3.23409,0 0,-3.234098 z m 3.28892,0 3.23409,0 0,3.234098 -3.23409,0 0,-3.234098 z m 3.28891,0 3.23409,0 0,3.234098 -3.23409,0 0,-3.234098 z m 3.28891,0 3.23409,0 0,3.234098 -3.23409,0 0,-3.234098 z m 3.28892,0 3.2341,0 0,3.234098 -3.2341,0 0,-3.234098 z m 3.2889,0 3.2341,0 0,3.234098 -3.2341,0 0,-3.234098 z m 3.28892,0 3.23409,0 0,3.234098 -3.23409,0 0,-3.234098 z m 3.28892,0 3.2341,0 0,3.234098 -3.2341,0 0,-3.234098 z m 3.2889,0 3.23411,0 0,3.234098 -3.23411,0 0,-3.234098 z m 3.28891,0 3.23409,0 0,3.234098 -3.23409,0 0,-3.234098 z m 3.28892,0 3.2341,0 0,3.234098 -3.2341,0 0,-3.234098 z m 3.28891,0 3.23411,0 0,3.234098 -3.23411,0 0,-3.234098 z m 3.28891,0 3.2341,0 0,3.234098 -3.2341,0 0,-3.234098 z m 3.28892,0 3.2341,0 0,3.234098 -3.2341,0 0,-3.234098 z m 3.28891,0 3.23411,0 0,3.234098 -3.23411,0 0,-3.234098 z m 3.28891,0 3.2341,0 0,3.234098 -3.2341,0 0,-3.234098 z m 3.28893,0 3.23409,0 0,3.234098 -3.23409,0 0,-3.234098 z m 3.2889,0 3.2341,0 0,3.234098 -3.2341,0 0,-3.234098 z m 3.28891,0 3.2341,0 0,3.234098 -3.2341,0 0,-3.234098 z m 3.28893,0 3.23408,0 0,3.234098 -3.23408,0 0,-3.234098 z m 3.28889,0 3.23411,0 0,3.234098 -3.23411,0 0,-3.234098 z m 3.28891,0 3.2341,0 0,3.234098 -3.2341,0 0,-3.234098 z m 3.28893,0 3.23409,0 0,3.234098 -3.23409,0 0,-3.234098 z m -121.68977,3.288913 3.23409,0 0,3.2340988 -3.23409,0 0,-3.2340988 z m 3.2889,0 3.23411,0 0,3.2340988 -3.23411,0 0,-3.2340988 z m 3.28893,0 3.23408,0 0,3.2340988 -3.23408,0 0,-3.2340988 z m 3.28889,0 3.23411,0 0,3.2340988 -3.23411,0 0,-3.2340988 z m 3.28893,0 3.2341,0 0,3.2340988 -3.2341,0 0,-3.2340988 z m 3.28891,0 3.23409,0 0,3.2340988 -3.23409,0 0,-3.2340988 z m 3.28891,0 3.23409,0 0,3.2340988 -3.23409,0 0,-3.2340988 z m 3.28892,0 3.2341,0 0,3.2340988 -3.2341,0 0,-3.2340988 z m 3.28891,0 3.23409,0 0,3.2340988 -3.23409,0 0,-3.2340988 z m 3.28891,0 3.23409,0 0,3.2340988 -3.23409,0 0,-3.2340988 z m 3.28892,0 3.23409,0 0,3.2340988 -3.23409,0 0,-3.2340988 z m 3.28891,0 3.23409,0 0,3.2340988 -3.23409,0 0,-3.2340988 z m 3.28891,0 3.23409,0 0,3.2340988 -3.23409,0 0,-3.2340988 z m 3.28891,0 3.2341,0 0,3.2340988 -3.2341,0 0,-3.2340988 z m 3.28891,0 3.2341,0 0,3.2340988 -3.2341,0 0,-3.2340988 z m 3.28891,0 3.23409,0 0,3.2340988 -3.23409,0 0,-3.2340988 z m 3.28892,0 3.23409,0 0,3.2340988 -3.23409,0 0,-3.2340988 z m 3.28891,0 3.23409,0 0,3.2340988 -3.23409,0 0,-3.2340988 z m 3.28891,0 3.23409,0 0,3.2340988 -3.23409,0 0,-3.2340988 z m 3.28892,0 3.2341,0 0,3.2340988 -3.2341,0 0,-3.2340988 z m 3.2889,0 3.2341,0 0,3.2340988 -3.2341,0 0,-3.2340988 z m 3.28892,0 3.23409,0 0,3.2340988 -3.23409,0 0,-3.2340988 z m 3.28892,0 3.2341,0 0,3.2340988 -3.2341,0 0,-3.2340988 z m 3.2889,0 3.23411,0 0,3.2340988 -3.23411,0 0,-3.2340988 z m 3.28891,0 3.23409,0 0,3.2340988 -3.23409,0 0,-3.2340988 z m 3.28892,0 3.2341,0 0,3.2340988 -3.2341,0 0,-3.2340988 z m 3.28891,0 3.23411,0 0,3.2340988 -3.23411,0 0,-3.2340988 z m 3.28891,0 3.2341,0 0,3.2340988 -3.2341,0 0,-3.2340988 z m 3.28892,0 3.2341,0 0,3.2340988 -3.2341,0 0,-3.2340988 z m 3.28891,0 3.23411,0 0,3.2340988 -3.23411,0 0,-3.2340988 z m 3.28891,0 3.2341,0 0,3.2340988 -3.2341,0 0,-3.2340988 z m 3.28893,0 3.23409,0 0,3.2340988 -3.23409,0 0,-3.2340988 z m 3.2889,0 3.2341,0 0,3.2340988 -3.2341,0 0,-3.2340988 z m 3.28891,0 3.2341,0 0,3.2340988 -3.2341,0 0,-3.2340988 z m 3.28893,0 3.23408,0 0,3.2340988 -3.23408,0 0,-3.2340988 z m 3.28889,0 3.23411,0 0,3.2340988 -3.23411,0 0,-3.2340988 z m 3.28891,0 3.2341,0 0,3.2340988 -3.2341,0 0,-3.2340988 z m 3.28893,0 3.23409,0 0,3.2340988 -3.23409,0 0,-3.2340988 z m -121.68977,3.2889148 3.23409,0 0,3.2340907 -3.23409,0 0,-3.2340907 z m 3.2889,0 3.23411,0 0,3.2340907 -3.23411,0 0,-3.2340907 z m 3.28893,0 3.23408,0 0,3.2340907 -3.23408,0 0,-3.2340907 z m 3.28889,0 3.23411,0 0,3.2340907 -3.23411,0 0,-3.2340907 z m 3.28893,0 3.2341,0 0,3.2340907 -3.2341,0 0,-3.2340907 z m 3.28891,0 3.23409,0 0,3.2340907 -3.23409,0 0,-3.2340907 z m 3.28891,0 3.23409,0 0,3.2340907 -3.23409,0 0,-3.2340907 z m 3.28892,0 3.2341,0 0,3.2340907 -3.2341,0 0,-3.2340907 z m 3.28891,0 3.23409,0 0,3.2340907 -3.23409,0 0,-3.2340907 z m 3.28891,0 3.23409,0 0,3.2340907 -3.23409,0 0,-3.2340907 z m 3.28892,0 3.23409,0 0,3.2340907 -3.23409,0 0,-3.2340907 z m 3.28891,0 3.23409,0 0,3.2340907 -3.23409,0 0,-3.2340907 z m 3.28891,0 3.23409,0 0,3.2340907 -3.23409,0 0,-3.2340907 z m 3.28891,0 3.2341,0 0,3.2340907 -3.2341,0 0,-3.2340907 z m 3.28891,0 3.2341,0 0,3.2340907 -3.2341,0 0,-3.2340907 z m 3.28891,0 3.23409,0 0,3.2340907 -3.23409,0 0,-3.2340907 z m 3.28892,0 3.23409,0 0,3.2340907 -3.23409,0 0,-3.2340907 z m 3.28891,0 3.23409,0 0,3.2340907 -3.23409,0 0,-3.2340907 z m 3.28891,0 3.23409,0 0,3.2340907 -3.23409,0 0,-3.2340907 z m 3.28892,0 3.2341,0 0,3.2340907 -3.2341,0 0,-3.2340907 z m 3.2889,0 3.2341,0 0,3.2340907 -3.2341,0 0,-3.2340907 z m 3.28892,0 3.23409,0 0,3.2340907 -3.23409,0 0,-3.2340907 z m 3.28892,0 3.2341,0 0,3.2340907 -3.2341,0 0,-3.2340907 z m 3.2889,0 3.23411,0 0,3.2340907 -3.23411,0 0,-3.2340907 z m 3.28891,0 3.23409,0 0,3.2340907 -3.23409,0 0,-3.2340907 z m 3.28892,0 3.2341,0 0,3.2340907 -3.2341,0 0,-3.2340907 z m 3.28891,0 3.23411,0 0,3.2340907 -3.23411,0 0,-3.2340907 z m 3.28891,0 3.2341,0 0,3.2340907 -3.2341,0 0,-3.2340907 z m 3.28892,0 3.2341,0 0,3.2340907 -3.2341,0 0,-3.2340907 z m 3.28891,0 3.23411,0 0,3.2340907 -3.23411,0 0,-3.2340907 z m 3.28891,0 3.2341,0 0,3.2340907 -3.2341,0 0,-3.2340907 z m 3.28893,0 3.23409,0 0,3.2340907 -3.23409,0 0,-3.2340907 z m 3.2889,0 3.2341,0 0,3.2340907 -3.2341,0 0,-3.2340907 z m 3.28891,0 3.2341,0 0,3.2340907 -3.2341,0 0,-3.2340907 z m 3.28893,0 3.23408,0 0,3.2340907 -3.23408,0 0,-3.2340907 z m 3.28889,0 3.23411,0 0,3.2340907 -3.23411,0 0,-3.2340907 z m 3.28891,0 3.2341,0 0,3.2340907 -3.2341,0 0,-3.2340907 z m 3.28893,0 3.23409,0 0,3.2340907 -3.23409,0 0,-3.2340907 z m -121.68977,3.2889067 3.23409,0 0,3.23409496 -3.23409,0 0,-3.23409496 z m 3.2889,0 3.23411,0 0,3.23409496 -3.23411,0 0,-3.23409496 z m 3.28893,0 3.23408,0 0,3.23409496 -3.23408,0 0,-3.23409496 z m 3.28889,0 3.23411,0 0,3.23409496 -3.23411,0 0,-3.23409496 z m 3.28893,0 3.2341,0 0,3.23409496 -3.2341,0 0,-3.23409496 z m 3.28891,0 3.23409,0 0,3.23409496 -3.23409,0 0,-3.23409496 z m 3.28891,0 3.23409,0 0,3.23409496 -3.23409,0 0,-3.23409496 z m 3.28892,0 3.2341,0 0,3.23409496 -3.2341,0 0,-3.23409496 z m 3.28891,0 3.23409,0 0,3.23409496 -3.23409,0 0,-3.23409496 z m 3.28891,0 3.23409,0 0,3.23409496 -3.23409,0 0,-3.23409496 z m 3.28892,0 3.23409,0 0,3.23409496 -3.23409,0 0,-3.23409496 z m 3.28891,0 3.23409,0 0,3.23409496 -3.23409,0 0,-3.23409496 z m 3.28891,0 3.23409,0 0,3.23409496 -3.23409,0 0,-3.23409496 z m 3.28891,0 3.2341,0 0,3.23409496 -3.2341,0 0,-3.23409496 z m 3.28891,0 3.2341,0 0,3.23409496 -3.2341,0 0,-3.23409496 z m 3.28891,0 3.23409,0 0,3.23409496 -3.23409,0 0,-3.23409496 z m 3.28892,0 3.23409,0 0,3.23409496 -3.23409,0 0,-3.23409496 z m 3.28891,0 3.23409,0 0,3.23409496 -3.23409,0 0,-3.23409496 z m 3.28891,0 3.23409,0 0,3.23409496 -3.23409,0 0,-3.23409496 z m 3.28892,0 3.2341,0 0,3.23409496 -3.2341,0 0,-3.23409496 z m 3.2889,0 3.2341,0 0,3.23409496 -3.2341,0 0,-3.23409496 z m 3.28892,0 3.23409,0 0,3.23409496 -3.23409,0 0,-3.23409496 z m 3.28892,0 3.2341,0 0,3.23409496 -3.2341,0 0,-3.23409496 z m 3.2889,0 3.23411,0 0,3.23409496 -3.23411,0 0,-3.23409496 z m 3.28891,0 3.23409,0 0,3.23409496 -3.23409,0 0,-3.23409496 z m 3.28892,0 3.2341,0 0,3.23409496 -3.2341,0 0,-3.23409496 z m 3.28891,0 3.23411,0 0,3.23409496 -3.23411,0 0,-3.23409496 z m 3.28891,0 3.2341,0 0,3.23409496 -3.2341,0 0,-3.23409496 z m 3.28892,0 3.2341,0 0,3.23409496 -3.2341,0 0,-3.23409496 z m 3.28891,0 3.23411,0 0,3.23409496 -3.23411,0 0,-3.23409496 z m 3.28891,0 3.2341,0 0,3.23409496 -3.2341,0 0,-3.23409496 z m 3.28893,0 3.23409,0 0,3.23409496 -3.23409,0 0,-3.23409496 z m 3.2889,0 3.2341,0 0,3.23409496 -3.2341,0 0,-3.23409496 z m 3.28891,0 3.2341,0 0,3.23409496 -3.2341,0 0,-3.23409496 z m 3.28893,0 3.23408,0 0,3.23409496 -3.23408,0 0,-3.23409496 z m 3.28889,0 3.23411,0 0,3.23409496 -3.23411,0 0,-3.23409496 z m 3.28891,0 3.2341,0 0,3.23409496 -3.2341,0 0,-3.23409496 z m 3.28893,0 3.23409,0 0,3.23409496 -3.23409,0 0,-3.23409496 z m -121.68977,3.28891496 3.23409,0 0,3.23409154 -3.23409,0 0,-3.23409154 z m 3.2889,0 3.23411,0 0,3.23409154 -3.23411,0 0,-3.23409154 z m 3.28893,0 3.23408,0 0,3.23409154 -3.23408,0 0,-3.23409154 z m 3.28889,0 3.23411,0 0,3.23409154 -3.23411,0 0,-3.23409154 z m 3.28893,0 3.2341,0 0,3.23409154 -3.2341,0 0,-3.23409154 z m 3.28891,0 3.23409,0 0,3.23409154 -3.23409,0 0,-3.23409154 z m 3.28891,0 3.23409,0 0,3.23409154 -3.23409,0 0,-3.23409154 z m 3.28892,0 3.2341,0 0,3.23409154 -3.2341,0 0,-3.23409154 z m 3.28891,0 3.23409,0 0,3.23409154 -3.23409,0 0,-3.23409154 z m 3.28891,0 3.23409,0 0,3.23409154 -3.23409,0 0,-3.23409154 z m 3.28892,0 3.23409,0 0,3.23409154 -3.23409,0 0,-3.23409154 z m 3.28891,0 3.23409,0 0,3.23409154 -3.23409,0 0,-3.23409154 z m 3.28891,0 3.23409,0 0,3.23409154 -3.23409,0 0,-3.23409154 z m 3.28891,0 3.2341,0 0,3.23409154 -3.2341,0 0,-3.23409154 z m 3.28891,0 3.2341,0 0,3.23409154 -3.2341,0 0,-3.23409154 z m 3.28891,0 3.23409,0 0,3.23409154 -3.23409,0 0,-3.23409154 z m 3.28892,0 3.23409,0 0,3.23409154 -3.23409,0 0,-3.23409154 z m 3.28891,0 3.23409,0 0,3.23409154 -3.23409,0 0,-3.23409154 z m 3.28891,0 3.23409,0 0,3.23409154 -3.23409,0 0,-3.23409154 z m 3.28892,0 3.2341,0 0,3.23409154 -3.2341,0 0,-3.23409154 z m 3.2889,0 3.2341,0 0,3.23409154 -3.2341,0 0,-3.23409154 z m 3.28892,0 3.23409,0 0,3.23409154 -3.23409,0 0,-3.23409154 z m 3.28892,0 3.2341,0 0,3.23409154 -3.2341,0 0,-3.23409154 z m 3.2889,0 3.23411,0 0,3.23409154 -3.23411,0 0,-3.23409154 z m 3.28891,0 3.23409,0 0,3.23409154 -3.23409,0 0,-3.23409154 z m 3.28892,0 3.2341,0 0,3.23409154 -3.2341,0 0,-3.23409154 z m 3.28891,0 3.23411,0 0,3.23409154 -3.23411,0 0,-3.23409154 z m 3.28891,0 3.2341,0 0,3.23409154 -3.2341,0 0,-3.23409154 z m 3.28892,0 3.2341,0 0,3.23409154 -3.2341,0 0,-3.23409154 z m 3.28891,0 3.23411,0 0,3.23409154 -3.23411,0 0,-3.23409154 z m 3.28891,0 3.2341,0 0,3.23409154 -3.2341,0 0,-3.23409154 z m 3.28893,0 3.23409,0 0,3.23409154 -3.23409,0 0,-3.23409154 z m 3.2889,0 3.2341,0 0,3.23409154 -3.2341,0 0,-3.23409154 z m 3.28891,0 3.2341,0 0,3.23409154 -3.2341,0 0,-3.23409154 z m 3.28893,0 3.23408,0 0,3.23409154 -3.23408,0 0,-3.23409154 z m 3.28889,0 3.23411,0 0,3.23409154 -3.23411,0 0,-3.23409154 z m 3.28891,0 3.2341,0 0,3.23409154 -3.2341,0 0,-3.23409154 z m 3.28893,0 3.23409,0 0,3.23409154 -3.23409,0 0,-3.23409154 z M 199.25413,2.710244 l 3.23409,0 0,3.234098 -3.23409,0 0,-3.234098 z m 3.2889,0 3.23411,0 0,3.234098 -3.23411,0 0,-3.234098 z m 3.28893,0 3.23408,0 0,3.234098 -3.23408,0 0,-3.234098 z m 3.28889,0 3.23411,0 0,3.234098 -3.23411,0 0,-3.234098 z m 3.28893,0 3.2341,0 0,3.234098 -3.2341,0 0,-3.234098 z m 3.28891,0 3.23409,0 0,3.234098 -3.23409,0 0,-3.234098 z m 3.28891,0 3.23409,0 0,3.234098 -3.23409,0 0,-3.234098 z m 3.28892,0 3.2341,0 0,3.234098 -3.2341,0 0,-3.234098 z m 3.28891,0 3.23409,0 0,3.234098 -3.23409,0 0,-3.234098 z m 3.28891,0 3.23409,0 0,3.234098 -3.23409,0 0,-3.234098 z m 3.28892,0 3.23409,0 0,3.234098 -3.23409,0 0,-3.234098 z m 3.28891,0 3.23409,0 0,3.234098 -3.23409,0 0,-3.234098 z m 3.28891,0 3.23409,0 0,3.234098 -3.23409,0 0,-3.234098 z m 3.28891,0 3.2341,0 0,3.234098 -3.2341,0 0,-3.234098 z m 3.28891,0 3.2341,0 0,3.234098 -3.2341,0 0,-3.234098 z m 3.28891,0 3.23409,0 0,3.234098 -3.23409,0 0,-3.234098 z m 3.28892,0 3.23409,0 0,3.234098 -3.23409,0 0,-3.234098 z m 3.28891,0 3.23409,0 0,3.234098 -3.23409,0 0,-3.234098 z m 3.28891,0 3.23409,0 0,3.234098 -3.23409,0 0,-3.234098 z m 3.28892,0 3.2341,0 0,3.234098 -3.2341,0 0,-3.234098 z m 3.2889,0 3.2341,0 0,3.234098 -3.2341,0 0,-3.234098 z m 3.28892,0 3.23409,0 0,3.234098 -3.23409,0 0,-3.234098 z m 3.28892,0 3.2341,0 0,3.234098 -3.2341,0 0,-3.234098 z m 3.2889,0 3.23411,0 0,3.234098 -3.23411,0 0,-3.234098 z m 3.28891,0 3.23409,0 0,3.234098 -3.23409,0 0,-3.234098 z m 3.28892,0 3.2341,0 0,3.234098 -3.2341,0 0,-3.234098 z m 3.28891,0 3.23411,0 0,3.234098 -3.23411,0 0,-3.234098 z m 3.28891,0 3.2341,0 0,3.234098 -3.2341,0 0,-3.234098 z m 3.28892,0 3.2341,0 0,3.234098 -3.2341,0 0,-3.234098 z m 3.28891,0 3.23411,0 0,3.234098 -3.23411,0 0,-3.234098 z m 3.28891,0 3.2341,0 0,3.234098 -3.2341,0 0,-3.234098 z m 3.28893,0 3.23409,0 0,3.234098 -3.23409,0 0,-3.234098 z m 3.2889,0 3.2341,0 0,3.234098 -3.2341,0 0,-3.234098 z m 3.28891,0 3.2341,0 0,3.234098 -3.2341,0 0,-3.234098 z m 3.28893,0 3.23408,0 0,3.234098 -3.23408,0 0,-3.234098 z m 3.28889,0 3.23411,0 0,3.234098 -3.23411,0 0,-3.234098 z m 3.28891,0 3.2341,0 0,3.234098 -3.2341,0 0,-3.234098 z m 3.28893,0 3.23409,0 0,3.234098 -3.23409,0 0,-3.234098 z m -121.68977,3.288911 3.23409,0 0,3.234098 -3.23409,0 0,-3.234098 z m 3.2889,0 3.23411,0 0,3.234098 -3.23411,0 0,-3.234098 z m 3.28893,0 3.23408,0 0,3.234098 -3.23408,0 0,-3.234098 z m 3.28889,0 3.23411,0 0,3.234098 -3.23411,0 0,-3.234098 z m 3.28893,0 3.2341,0 0,3.234098 -3.2341,0 0,-3.234098 z m 3.28891,0 3.23409,0 0,3.234098 -3.23409,0 0,-3.234098 z m 3.28891,0 3.23409,0 0,3.234098 -3.23409,0 0,-3.234098 z m 3.28892,0 3.2341,0 0,3.234098 -3.2341,0 0,-3.234098 z m 3.28891,0 3.23409,0 0,3.234098 -3.23409,0 0,-3.234098 z m 3.28891,0 3.23409,0 0,3.234098 -3.23409,0 0,-3.234098 z m 3.28892,0 3.23409,0 0,3.234098 -3.23409,0 0,-3.234098 z m 3.28891,0 3.23409,0 0,3.234098 -3.23409,0 0,-3.234098 z m 3.28891,0 3.23409,0 0,3.234098 -3.23409,0 0,-3.234098 z m 3.28891,0 3.2341,0 0,3.234098 -3.2341,0 0,-3.234098 z m 3.28891,0 3.2341,0 0,3.234098 -3.2341,0 0,-3.234098 z m 3.28891,0 3.23409,0 0,3.234098 -3.23409,0 0,-3.234098 z m 3.28892,0 3.23409,0 0,3.234098 -3.23409,0 0,-3.234098 z m 3.28891,0 3.23409,0 0,3.234098 -3.23409,0 0,-3.234098 z m 3.28891,0 3.23409,0 0,3.234098 -3.23409,0 0,-3.234098 z m 3.28892,0 3.2341,0 0,3.234098 -3.2341,0 0,-3.234098 z m 3.2889,0 3.2341,0 0,3.234098 -3.2341,0 0,-3.234098 z m 3.28892,0 3.23409,0 0,3.234098 -3.23409,0 0,-3.234098 z m 3.28892,0 3.2341,0 0,3.234098 -3.2341,0 0,-3.234098 z m 3.2889,0 3.23411,0 0,3.234098 -3.23411,0 0,-3.234098 z m 3.28891,0 3.23409,0 0,3.234098 -3.23409,0 0,-3.234098 z m 3.28892,0 3.2341,0 0,3.234098 -3.2341,0 0,-3.234098 z m 3.28891,0 3.23411,0 0,3.234098 -3.23411,0 0,-3.234098 z m 3.28891,0 3.2341,0 0,3.234098 -3.2341,0 0,-3.234098 z m 3.28892,0 3.2341,0 0,3.234098 -3.2341,0 0,-3.234098 z m 3.28891,0 3.23411,0 0,3.234098 -3.23411,0 0,-3.234098 z m 3.28891,0 3.2341,0 0,3.234098 -3.2341,0 0,-3.234098 z m 3.28893,0 3.23409,0 0,3.234098 -3.23409,0 0,-3.234098 z m 3.2889,0 3.2341,0 0,3.234098 -3.2341,0 0,-3.234098 z m 3.28891,0 3.2341,0 0,3.234098 -3.2341,0 0,-3.234098 z m 3.28893,0 3.23408,0 0,3.234098 -3.23408,0 0,-3.234098 z m 3.28889,0 3.23411,0 0,3.234098 -3.23411,0 0,-3.234098 z m 3.28891,0 3.2341,0 0,3.234098 -3.2341,0 0,-3.234098 z m 3.28893,0 3.23409,0 0,3.234098 -3.23409,0 0,-3.234098 z m -121.68977,3.288911 3.23409,0 0,3.234104 -3.23409,0 0,-3.234104 z m 3.2889,0 3.23411,0 0,3.234104 -3.23411,0 0,-3.234104 z m 3.28893,0 3.23408,0 0,3.234104 -3.23408,0 0,-3.234104 z m 3.28889,0 3.23411,0 0,3.234104 -3.23411,0 0,-3.234104 z m 3.28893,0 3.2341,0 0,3.234104 -3.2341,0 0,-3.234104 z m 3.28891,0 3.23409,0 0,3.234104 -3.23409,0 0,-3.234104 z m 3.28891,0 3.23409,0 0,3.234104 -3.23409,0 0,-3.234104 z m 3.28892,0 3.2341,0 0,3.234104 -3.2341,0 0,-3.234104 z m 3.28891,0 3.23409,0 0,3.234104 -3.23409,0 0,-3.234104 z m 3.28891,0 3.23409,0 0,3.234104 -3.23409,0 0,-3.234104 z m 3.28892,0 3.23409,0 0,3.234104 -3.23409,0 0,-3.234104 z m 3.28891,0 3.23409,0 0,3.234104 -3.23409,0 0,-3.234104 z m 3.28891,0 3.23409,0 0,3.234104 -3.23409,0 0,-3.234104 z m 3.28891,0 3.2341,0 0,3.234104 -3.2341,0 0,-3.234104 z m 3.28891,0 3.2341,0 0,3.234104 -3.2341,0 0,-3.234104 z m 3.28891,0 3.23409,0 0,3.234104 -3.23409,0 0,-3.234104 z m 3.28892,0 3.23409,0 0,3.234104 -3.23409,0 0,-3.234104 z m 3.28891,0 3.23409,0 0,3.234104 -3.23409,0 0,-3.234104 z m 3.28891,0 3.23409,0 0,3.234104 -3.23409,0 0,-3.234104 z m 3.28892,0 3.2341,0 0,3.234104 -3.2341,0 0,-3.234104 z m 3.2889,0 3.2341,0 0,3.234104 -3.2341,0 0,-3.234104 z m 3.28892,0 3.23409,0 0,3.234104 -3.23409,0 0,-3.234104 z m 3.28892,0 3.2341,0 0,3.234104 -3.2341,0 0,-3.234104 z m 3.2889,0 3.23411,0 0,3.234104 -3.23411,0 0,-3.234104 z m 3.28891,0 3.23409,0 0,3.234104 -3.23409,0 0,-3.234104 z m 3.28892,0 3.2341,0 0,3.234104 -3.2341,0 0,-3.234104 z m 3.28891,0 3.23411,0 0,3.234104 -3.23411,0 0,-3.234104 z m 3.28891,0 3.2341,0 0,3.234104 -3.2341,0 0,-3.234104 z m 3.28892,0 3.2341,0 0,3.234104 -3.2341,0 0,-3.234104 z m 3.28891,0 3.23411,0 0,3.234104 -3.23411,0 0,-3.234104 z m 3.28891,0 3.2341,0 0,3.234104 -3.2341,0 0,-3.234104 z m 3.28893,0 3.23409,0 0,3.234104 -3.23409,0 0,-3.234104 z m 3.2889,0 3.2341,0 0,3.234104 -3.2341,0 0,-3.234104 z m 3.28891,0 3.2341,0 0,3.234104 -3.2341,0 0,-3.234104 z m 3.28893,0 3.23408,0 0,3.234104 -3.23408,0 0,-3.234104 z m 3.28889,0 3.23411,0 0,3.234104 -3.23411,0 0,-3.234104 z m 3.28891,0 3.2341,0 0,3.234104 -3.2341,0 0,-3.234104 z m 3.28893,0 3.23409,0 0,3.234104 -3.23409,0 0,-3.234104 z m -121.68977,3.288924 3.23409,0 0,3.234096 -3.23409,0 0,-3.234096 z m 3.2889,0 3.23411,0 0,3.234096 -3.23411,0 0,-3.234096 z m 3.28893,0 3.23408,0 0,3.234096 -3.23408,0 0,-3.234096 z m 3.28889,0 3.23411,0 0,3.234096 -3.23411,0 0,-3.234096 z m 3.28893,0 3.2341,0 0,3.234096 -3.2341,0 0,-3.234096 z m 3.28891,0 3.23409,0 0,3.234096 -3.23409,0 0,-3.234096 z m 3.28891,0 3.23409,0 0,3.234096 -3.23409,0 0,-3.234096 z m 3.28892,0 3.2341,0 0,3.234096 -3.2341,0 0,-3.234096 z m 3.28891,0 3.23409,0 0,3.234096 -3.23409,0 0,-3.234096 z m 3.28891,0 3.23409,0 0,3.234096 -3.23409,0 0,-3.234096 z m 3.28892,0 3.23409,0 0,3.234096 -3.23409,0 0,-3.234096 z m 3.28891,0 3.23409,0 0,3.234096 -3.23409,0 0,-3.234096 z m 3.28891,0 3.23409,0 0,3.234096 -3.23409,0 0,-3.234096 z m 3.28891,0 3.2341,0 0,3.234096 -3.2341,0 0,-3.234096 z m 3.28891,0 3.2341,0 0,3.234096 -3.2341,0 0,-3.234096 z m 3.28891,0 3.23409,0 0,3.234096 -3.23409,0 0,-3.234096 z m 3.28892,0 3.23409,0 0,3.234096 -3.23409,0 0,-3.234096 z m 3.28891,0 3.23409,0 0,3.234096 -3.23409,0 0,-3.234096 z m 3.28891,0 3.23409,0 0,3.234096 -3.23409,0 0,-3.234096 z m 3.28892,0 3.2341,0 0,3.234096 -3.2341,0 0,-3.234096 z m 3.2889,0 3.2341,0 0,3.234096 -3.2341,0 0,-3.234096 z m 3.28892,0 3.23409,0 0,3.234096 -3.23409,0 0,-3.234096 z m 3.28892,0 3.2341,0 0,3.234096 -3.2341,0 0,-3.234096 z m 3.2889,0 3.23411,0 0,3.234096 -3.23411,0 0,-3.234096 z m 3.28891,0 3.23409,0 0,3.234096 -3.23409,0 0,-3.234096 z m 3.28892,0 3.2341,0 0,3.234096 -3.2341,0 0,-3.234096 z m 3.28891,0 3.23411,0 0,3.234096 -3.23411,0 0,-3.234096 z m 3.28891,0 3.2341,0 0,3.234096 -3.2341,0 0,-3.234096 z m 3.28892,0 3.2341,0 0,3.234096 -3.2341,0 0,-3.234096 z m 3.28891,0 3.23411,0 0,3.234096 -3.23411,0 0,-3.234096 z m 3.28891,0 3.2341,0 0,3.234096 -3.2341,0 0,-3.234096 z m 3.28893,0 3.23409,0 0,3.234096 -3.23409,0 0,-3.234096 z m 3.2889,0 3.2341,0 0,3.234096 -3.2341,0 0,-3.234096 z m 3.28891,0 3.2341,0 0,3.234096 -3.2341,0 0,-3.234096 z m 3.28893,0 3.23408,0 0,3.234096 -3.23408,0 0,-3.234096 z m 3.28889,0 3.23411,0 0,3.234096 -3.23411,0 0,-3.234096 z m 3.28891,0 3.2341,0 0,3.234096 -3.2341,0 0,-3.234096 z m 3.28893,0 3.23409,0 0,3.234096 -3.23409,0 0,-3.234096 z"
         id="path14509"
         style="font-size:medium;font-style:normal;font-variant:normal;font-weight:normal;font-stretch:normal;text-indent:0;text-align:start;text-decoration:none;line-height:normal;letter-spacing:normal;word-spacing:normal;text-transform:none;direction:ltr;block-progression:tb;writing-mode:lr-tb;text-anchor:start;baseline-shift:baseline;color:#000000;fill:#ffffff;fill-opacity:1;stroke:#070707;stroke-width:0.101;stroke-linejoin:miter;stroke-miterlimit:1;stroke-opacity:1;stroke-dasharray:none;stroke-dashoffset:0.05;marker:none;visibility:visible;display:inline;overflow:visible;enable-background:accumulate;font-family:Sans;-inkscape-font-specification:Sans" />
    </clipPath>
  </defs>
  <path
     d="M 105.125,-1.2207032e-5 C 47.212999,-1.2207032e-5 0,47.212987 0,105.12499 0,163.037 47.212999,210.275 105.125,210.275 c 57.91201,0 105.15001,-47.238 105.15001,-105.15001 0,-57.912003 -47.238,-105.125002197032 -105.15001,-105.125002197032 z m 0,5.675000407032 c 54.78101,0 99.47501,44.6679988 99.47501,99.4500018 0,54.78201 -44.694,99.47501 -99.47501,99.47501 -54.782001,0 -99.45,-44.693 -99.45,-99.47501 0,-54.782003 44.667999,-99.4500018 99.45,-99.4500018 z m 0,7.5000008 c -50.657001,0 -91.950001,41.292998 -91.950001,91.950001 0,50.65601 41.293,91.97501 91.950001,91.97501 12.533,0 24.496,-2.527 35.40001,-7.1 l 0,-46.2 -86.325711,0 0,-11.6 C 53.674339,131.15008 151.3,25.649988 151.3,25.649988 137.71701,17.71999 121.934,13.174989 105.125,13.174989 z m 58.65001,21.199999 0,87.075012 31.875,0 c 0.956,-5.294 1.45,-10.76301 1.45,-16.32501 0,-28.399 -12.988,-53.858006 -33.325,-70.750002 z m -23.25,22.775001 -59.513031,64.300011 59.513031,0 z m 23.25,86.650011 0,32.075 c 10.455,-8.683 18.971,-19.627 24.775,-32.075 z"
     id="path2994"
     style="fill:#333333;fill-opacity:1;fill-rule:nonzero;stroke:none" />
  <text
     x="201.58138"
     y="141.67177"
     id="text4162"
     xml:space="preserve"
     style="font-size:194.28001404px;font-style:normal;font-variant:normal;font-weight:normal;font-stretch:normal;text-align:start;line-height:80.00000119%;letter-spacing:0px;word-spacing:0px;writing-mode:lr-tb;text-anchor:start;fill:#333333;fill-opacity:1;stroke:none;font-family:Armata;-inkscape-font-specification:'Armata, Normal'"><tspan
       x="201.58138"
       y="141.67177"
       id="tspan4168">n</tspan></text>
  <text
     x="312.92944"
     y="141.649"
     id="text4162-5"
     xml:space="preserve"
     style="font-size:194.28001404px;font-style:normal;font-variant:normal;font-weight:normal;font-stretch:normal;text-align:start;line-height:80.00000119%;letter-spacing:0px;word-spacing:0px;writing-mode:lr-tb;text-anchor:start;fill:#333333;fill-opacity:1;fill-rule:evenodd;stroke:none;font-family:Armata;-inkscape-font-specification:'Armata, Normal'"><tspan
       x="312.92944"
       y="141.649"
       id="tspan4168-4">s</tspan></text>
  <text
     x="406.25839"
     y="141.67177"
     id="text4162-1"
     xml:space="preserve"
     style="font-size:194.28001404px;font-style:normal;font-variant:normal;font-weight:normal;font-stretch:normal;text-align:start;line-height:80.00000119%;letter-spacing:0px;word-spacing:0px;writing-mode:lr-tb;text-anchor:start;fill:#333333;fill-opacity:1;fill-rule:evenodd;stroke:none;font-family:Armata;-inkscape-font-specification:'Armata, Normal'"><tspan
       x="406.25839"
       y="141.67177"
       id="tspan4168-5">e</tspan></text>
</svg>
