<?xml version="1.0" encoding="UTF-8" standalone="no"?>
<!-- Created with Inkscape (http://www.inkscape.org/) -->

<svg
   xmlns:dc="http://purl.org/dc/elements/1.1/"
   xmlns:cc="http://creativecommons.org/ns#"
   xmlns:rdf="http://www.w3.org/1999/02/22-rdf-syntax-ns#"
   xmlns:svg="http://www.w3.org/2000/svg"
   xmlns="http://www.w3.org/2000/svg"
   xmlns:sodipodi="http://sodipodi.sourceforge.net/DTD/sodipodi-0.dtd"
   xmlns:inkscape="http://www.inkscape.org/namespaces/inkscape"
   version="1.1"
   width="127.51289"
   height="127.24027"
   id="svg2"
   inkscape:version="0.48.4 r9939"
   sodipodi:docname="open-hardware.svg">
  <sodipodi:namedview
     pagecolor="#ffffff"
     bordercolor="#666666"
     borderopacity="1"
     objecttolerance="10"
     gridtolerance="10"
     guidetolerance="10"
     inkscape:pageopacity="0"
     inkscape:pageshadow="2"
     inkscape:window-width="1543"
     inkscape:window-height="876"
     id="namedview7"
     showgrid="false"
     inkscape:zoom="1.8547587"
     inkscape:cx="-39.761063"
     inkscape:cy="63.620136"
     inkscape:window-x="57"
     inkscape:window-y="24"
     inkscape:window-maximized="1"
     inkscape:current-layer="svg2" />
  <defs
     id="defs4" />
  <metadata
     id="metadata7">
    <rdf:RDF>
      <cc:Work
         rdf:about="">
        <dc:format>image/svg+xml</dc:format>
        <dc:type
           rdf:resource="http://purl.org/dc/dcmitype/StillImage" />
        <dc:title />
      </cc:Work>
    </rdf:RDF>
  </metadata>
  <g
     transform="translate(-238.84427,-374.57651)"
     id="layer1"
     style="fill:#333333;fill-opacity:1">
    <path
       d="m 285.21843,500.22473 c -22.40554,-6.58669 -39.10449,-23.75969 -44.87435,-46.14822 -2.58415,-10.02715 -1.72858,-28.13542 1.79433,-37.97743 6.49264,-18.1386 21.86903,-33.21859 39.89117,-39.12223 6.26846,-2.0534 9.27885,-2.40034 20.82758,-2.40034 11.54873,0 14.55912,0.34694 20.82758,2.40034 18.32976,6.00441 34.25547,21.89731 40.2328,40.14993 2.0978,6.40593 2.43962,9.34125 2.43962,20.94973 0,11.54873 -0.34694,14.55912 -2.40034,20.82758 -5.90229,18.01801 -20.96879,33.38331 -39.12223,39.8981 -6.41424,2.3019 -9.32586,2.72211 -20.47743,2.95532 -10.20405,0.21339 -14.32027,-0.11627 -19.13873,-1.53278 z m 4.13589,-27.13927 c 0.85792,-2.70307 -0.13761,-4.00895 -3.05618,-4.00895 -2.04553,0 -2.44098,0.48601 -2.44098,3 0,2.51117 0.39638,3 2.43261,3 1.55071,0 2.66171,-0.72182 3.06455,-1.99105 z m 11.00284,-1.00895 c 0,-1.9839 -0.56771,-2.56532 -2.75,-2.81642 -2.48214,-0.2856 -2.75,-0.0113 -2.75,2.81642 0,2.82769 0.26786,3.10202 2.75,2.81642 2.18229,-0.2511 2.75,-0.83252 2.75,-2.81642 z m 11.5,0 c 0,-2.54325 -0.3854,-3 -2.53138,-3 -1.39227,0 -2.79041,0.675 -3.10699,1.5 -0.95734,2.49478 0.42715,4.5 3.10699,4.5 2.14598,0 2.53138,-0.45675 2.53138,-3 z m 11,0 c 0,-2.51399 -0.39545,-3 -2.44098,-3 -2.91857,0 -3.9141,1.30588 -3.05618,4.00895 0.40284,1.26923 1.51384,1.99105 3.06455,1.99105 2.03623,0 2.43261,-0.48883 2.43261,-3 z m 6.54545,-7.45455 2.45455,-2.45454 0,-23.59091 0,-23.59091 -2.45455,-2.45454 -2.45454,-2.45455 -23.59091,0 -23.59091,0 -2.45454,2.45455 -2.45455,2.45454 0,23.59091 0,23.59091 2.45455,2.45454 2.45454,2.45455 23.59091,0 23.59091,0 2.45454,-2.45455 z m -8.95492,-5.17012 c -0.37055,-0.96565 -0.0633,-2.33112 0.69518,-3.08962 1.9124,-1.91239 4.89163,-0.53293 4.51716,2.09157 -0.38363,2.68876 -4.27744,3.43434 -5.21234,0.99805 z m -38.43892,-38.26047 c -1.97282,-1.25023 -0.97413,-4.56569 1.48133,-4.91773 2.50751,-0.35951 3.9279,2.42217 2.26187,4.42962 -1.31814,1.58826 -1.88961,1.66278 -3.7432,0.48811 z m -9.15161,34.44416 c 0,-2.91857 -1.30588,-3.9141 -4.00895,-3.05618 -1.26923,0.40284 -1.99105,1.51384 -1.99105,3.06455 0,2.03623 0.48883,2.43261 3,2.43261 2.51399,0 3,-0.39545 3,-2.44098 z m 67,0.008 c 0,-1.55071 -0.72182,-2.66171 -1.99105,-3.06455 -2.70307,-0.85792 -4.00895,0.13761 -4.00895,3.05618 0,2.04553 0.48601,2.44098 3,2.44098 2.51117,0 3,-0.39638 3,-2.43261 z m -67.18358,-11.31702 c -0.2511,-2.18229 -0.83252,-2.75 -2.81642,-2.75 -1.9839,0 -2.56532,0.56771 -2.81642,2.75 -0.2856,2.48214 -0.0113,2.75 2.81642,2.75 2.82769,0 3.10202,-0.26786 2.81642,-2.75 z m 67,0 c -0.2511,-2.18229 -0.83252,-2.75 -2.81642,-2.75 -1.9839,0 -2.56532,0.56771 -2.81642,2.75 -0.2856,2.48214 -0.0113,2.75 2.81642,2.75 2.82769,0 3.10202,-0.26786 2.81642,-2.75 z m -67,-11.5 c 0.28431,-2.47092 0.005,-2.75 -2.75,-2.75 -2.54577,0 -3.06642,0.39618 -3.06642,2.33333 0,2.94739 0.88053,3.82793 3.45885,3.45885 1.39058,-0.19905 2.142,-1.16868 2.35757,-3.04218 z m 67,0 c 0.28431,-2.47092 0.005,-2.75 -2.75,-2.75 -2.54577,0 -3.06642,0.39618 -3.06642,2.33333 0,2.94739 0.88053,3.82793 3.45885,3.45885 1.39058,-0.19905 2.142,-1.16868 2.35757,-3.04218 z m -67,-11.00855 c 0.2841,-2.46138 0.003,-2.74145 -2.75,-2.74145 -2.57599,0 -3.06642,0.38652 -3.06642,2.41667 0,4.38057 5.31405,4.6773 5.81642,0.32478 z m 65.60179,2.65156 c 0.86999,-0.33384 1.58179,-1.68384 1.58179,-3 0,-1.99223 -0.50243,-2.39301 -3,-2.39301 -2.47619,0 -3,0.40741 -3,2.33333 0,3.47611 1.18838,4.29908 4.41821,3.05968 z m -48.91268,-17.40196 c 1.24272,-2.01077 -0.59219,-4.99105 -3.07292,-4.99105 -2.03623,0 -2.43261,0.48883 -2.43261,3 0,2.51399 0.39545,3 2.44098,3 1.34254,0 2.72159,-0.45403 3.06455,-1.00895 z m 10.99447,-1.99105 c 0,-1.9839 -0.56771,-2.56532 -2.75,-2.81642 -2.48214,-0.2856 -2.75,-0.0113 -2.75,2.81642 0,2.82769 0.26786,3.10202 2.75,2.81642 2.18229,-0.2511 2.75,-0.83252 2.75,-2.81642 z m 11.5,0 c 0,-2.54325 -0.3854,-3 -2.53138,-3 -1.39227,0 -2.79041,0.675 -3.10699,1.5 -0.95734,2.49478 0.42715,4.5 3.10699,4.5 2.14598,0 2.53138,-0.45675 2.53138,-3 z m 11,0 c 0,-2.51117 -0.39638,-3 -2.43261,-3 -1.55071,0 -2.66171,0.72182 -3.06455,1.99105 -0.85792,2.70307 0.13761,4.00895 3.05618,4.00895 2.04553,0 2.44098,-0.48601 2.44098,-3 z"
       id="path2996"
       style="fill:#333333;fill-opacity:1" />
  </g>
</svg>
